<svg width="132" height="32" viewBox="0 0 132 32" fill="none" xmlns="http://www.w3.org/2000/svg">
<g clip-path="url(#clip0_283_750)">
<path d="M39.8867 22.6946H49.1366V19.9084H43.1743V9.41406H39.8867V22.6946Z" fill="#D2D2D2" fill-opacity="0.8"/>
<path d="M54.6127 20.8384C53.294 20.8384 52.6067 19.6868 52.6067 17.9594C52.6067 16.232 53.294 15.0618 54.6127 15.0618C55.9315 15.0618 56.6373 16.232 56.6373 17.9594C56.6373 19.6868 55.9315 20.8384 54.6127 20.8384ZM54.6313 22.9929C57.696 22.9929 59.702 20.8198 59.702 17.9594C59.702 15.099 57.696 12.9258 54.6313 12.9258C51.5851 12.9258 49.542 15.099 49.542 17.9594C49.542 20.8198 51.5851 22.9929 54.6313 22.9929Z" fill="#D2D2D2" fill-opacity="0.8"/>
<path d="M65.007 25.9824C66.4187 25.9824 67.6631 25.6667 68.499 24.9237C69.2605 24.2365 69.762 23.1963 69.762 21.7661V13.1849H66.8644V14.2064H66.8273C66.2701 13.4078 65.4157 12.9062 64.1526 12.9062C61.7937 12.9062 60.1592 14.8751 60.1592 17.6612C60.1592 20.5774 62.1466 22.1747 64.2826 22.1747C65.4342 22.1747 66.1586 21.7104 66.7158 21.0789H66.7901V22.0261C66.7901 23.1777 66.2515 23.8464 64.9699 23.8464C63.9669 23.8464 63.4654 23.4192 63.2982 22.9177H60.3635C60.6607 24.9051 62.3881 25.9824 65.007 25.9824ZM64.9885 19.9273C63.8554 19.9273 63.1125 18.9986 63.1125 17.5684C63.1125 16.1196 63.8554 15.1909 64.9885 15.1909C66.2515 15.1909 66.9202 16.2682 66.9202 17.5498C66.9202 18.8871 66.3072 19.9273 64.9885 19.9273Z" fill="#D2D2D2" fill-opacity="0.8"/>
<path d="M75.7231 20.8344C74.4043 20.8344 73.7171 19.6829 73.7171 17.9555C73.7171 16.2281 74.4043 15.0579 75.7231 15.0579C77.0418 15.0579 77.7473 16.2281 77.7473 17.9555C77.7473 19.6829 77.0418 20.8344 75.7231 20.8344ZM75.7416 22.989C78.8061 22.989 80.8121 20.8159 80.8121 17.9555C80.8121 15.095 78.8061 12.9219 75.7416 12.9219C72.6955 12.9219 70.6523 15.095 70.6523 17.9555C70.6523 20.8159 72.6955 22.989 75.7416 22.989Z" fill="#D2D2D2" fill-opacity="0.8"/>
<path d="M81.6953 22.6965H84.7229V13.1866H81.6953V22.6965ZM81.6953 11.8678H84.7229V9.41602H81.6953V11.8678Z" fill="#D2D2D2" fill-opacity="0.8"/>
<path d="M86.0361 25.8338H89.0637V21.7104H89.1009C89.6952 22.5091 90.5682 22.992 91.7941 22.992C94.283 22.992 95.9361 21.0231 95.9361 17.9398C95.9361 15.0794 94.3945 12.9062 91.8684 12.9062C90.5682 12.9062 89.6395 13.482 88.9894 14.3365H88.9337V13.1849H86.0361V25.8338ZM91.014 20.6517C89.7138 20.6517 88.9708 19.5929 88.9708 18.0513C88.9708 16.5096 89.6395 15.3395 90.9583 15.3395C92.2585 15.3395 92.8714 16.4168 92.8714 18.0513C92.8714 19.6672 92.1656 20.6517 91.014 20.6517Z" fill="#D2D2D2" fill-opacity="0.8"/>
<path d="M100.864 22.992C103.353 22.992 105.192 21.9147 105.192 19.8344C105.192 17.4012 103.223 16.974 101.551 16.6954C100.344 16.4725 99.2668 16.3796 99.2668 15.7109C99.2668 15.1166 99.8426 14.838 100.586 14.838C101.421 14.838 101.997 15.098 102.109 15.9524H104.895C104.746 14.0764 103.297 12.9062 100.604 12.9062C98.3567 12.9062 96.4993 13.9464 96.4993 15.9524C96.4993 18.1813 98.2638 18.6271 99.9169 18.9057C101.18 19.1286 102.332 19.2214 102.332 20.0759C102.332 20.6888 101.756 21.0231 100.846 21.0231C99.8426 21.0231 99.2111 20.5588 99.0997 19.6115H96.2393C96.3321 21.7104 98.0781 22.992 100.864 22.992Z" fill="#D2D2D2" fill-opacity="0.8"/>
<path d="M109.302 22.9721C110.621 22.9721 111.457 22.4521 112.144 21.5234H112.2V22.6935H115.097V13.1836H112.07V18.4958C112.07 19.6288 111.438 20.4089 110.398 20.4089C109.432 20.4089 108.968 19.8331 108.968 18.793V13.1836H105.959V19.4245C105.959 21.5419 107.111 22.9721 109.302 22.9721Z" fill="#D2D2D2" fill-opacity="0.8"/>
<path d="M116.417 22.6948H119.445V17.364C119.445 16.231 120.002 15.4323 120.949 15.4323C121.859 15.4323 122.286 16.0267 122.286 17.0483V22.6948H125.314V17.364C125.314 16.231 125.853 15.4323 126.818 15.4323C127.729 15.4323 128.156 16.0267 128.156 17.0483V22.6948H131.183V16.5096C131.183 14.3736 130.106 12.9062 127.952 12.9062C126.726 12.9062 125.704 13.4263 124.961 14.5779H124.924C124.441 13.5563 123.494 12.9062 122.249 12.9062C120.875 12.9062 119.965 13.5563 119.37 14.5408H119.315V13.1849H116.417V22.6948Z" fill="#D2D2D2" fill-opacity="0.8"/>
<path fill-rule="evenodd" clip-rule="evenodd" d="M15.7567 31.2068C24.3053 31.2068 31.2351 24.2769 31.2351 15.7284C31.2351 7.17992 24.3053 0.25 15.7567 0.25C7.20824 0.25 0.27832 7.17992 0.27832 15.7284C0.27832 24.2769 7.20824 31.2068 15.7567 31.2068ZM18.1458 12.2091C19.4652 10.8896 19.4652 8.75041 18.1458 7.43095C16.8263 6.11151 14.6872 6.11151 13.3677 7.43095C12.0483 8.75041 12.0483 10.8896 13.3677 12.2091L15.7567 14.5981L18.1458 12.2091ZM19.2761 18.1175C20.5956 19.4369 22.7348 19.4369 24.0542 18.1175C25.3736 16.798 25.3736 14.6588 24.0542 13.3394C22.7348 12.02 20.5956 12.02 19.2761 13.3394L16.8871 15.7285L19.2761 18.1175ZM18.1458 24.0259C19.4652 22.7065 19.4652 20.5673 18.1458 19.2478L15.7567 16.8588L13.3677 19.2478C12.0483 20.5673 12.0483 22.7065 13.3677 24.0259C14.6872 25.3454 16.8263 25.3454 18.1458 24.0259ZM7.45925 18.1175C6.13984 16.798 6.13984 14.6588 7.45925 13.3394C8.77873 12.02 10.9179 12.02 12.2374 13.3394L14.6264 15.7285L12.2374 18.1175C10.9179 19.4369 8.77873 19.4369 7.45925 18.1175Z" fill="#D2D2D2" fill-opacity="0.8"/>
</g>
<defs>
<clipPath id="clip0_283_750">
<rect width="131.567" height="31.7308" fill="white" transform="translate(0.199219)"/>
</clipPath>
</defs>
</svg>
