<svg width="133" height="32" viewBox="0 0 133 32" fill="none" xmlns="http://www.w3.org/2000/svg">
<g clip-path="url(#clip0_283_761)">
<path d="M40.9014 21.7785H50.1513V18.9924H44.189V8.49805H40.9014V21.7785Z" fill="#D2D2D2" fill-opacity="0.8"/>
<path d="M55.6293 19.9182C54.3106 19.9182 53.6233 18.7666 53.6233 17.0392C53.6233 15.3118 54.3106 14.1417 55.6293 14.1417C56.9481 14.1417 57.6539 15.3118 57.6539 17.0392C57.6539 18.7666 56.9481 19.9182 55.6293 19.9182ZM55.6479 22.0728C58.7126 22.0728 60.7186 19.8996 60.7186 17.0392C60.7186 14.1788 58.7126 12.0056 55.6479 12.0056C52.6017 12.0056 50.5586 14.1788 50.5586 17.0392C50.5586 19.8996 52.6017 22.0728 55.6479 22.0728Z" fill="#D2D2D2" fill-opacity="0.8"/>
<path d="M66.0226 25.0645C67.4343 25.0645 68.6787 24.7487 69.5146 24.0057C70.2761 23.3185 70.7776 22.2783 70.7776 20.8481V12.2669H67.8801V13.2885H67.8429C67.2857 12.4898 66.4313 11.9883 65.1682 11.9883C62.8093 11.9883 61.1748 13.9571 61.1748 16.7433C61.1748 19.6594 63.1622 21.2568 65.2983 21.2568C66.4499 21.2568 67.1742 20.7924 67.7315 20.1609H67.8058V21.1082C67.8058 22.2598 67.2671 22.9284 65.9855 22.9284C64.9825 22.9284 64.481 22.5012 64.3138 21.9997H61.3791C61.6763 23.9872 63.4037 25.0645 66.0226 25.0645ZM66.0041 19.0093C64.8711 19.0093 64.1281 18.0806 64.1281 16.6504C64.1281 15.2016 64.8711 14.2729 66.0041 14.2729C67.2671 14.2729 67.9358 15.3502 67.9358 16.6318C67.9358 17.9691 67.3228 19.0093 66.0041 19.0093Z" fill="#D2D2D2" fill-opacity="0.8"/>
<path d="M76.7397 19.9184C75.4209 19.9184 74.7337 18.7668 74.7337 17.0394C74.7337 15.3121 75.4209 14.1419 76.7397 14.1419C78.0584 14.1419 78.7643 15.3121 78.7643 17.0394C78.7643 18.7668 78.0584 19.9184 76.7397 19.9184ZM76.7583 22.073C79.823 22.073 81.829 19.8999 81.829 17.0394C81.829 14.179 79.823 12.0059 76.7583 12.0059C73.7121 12.0059 71.6689 14.179 71.6689 17.0394C71.6689 19.8999 73.7121 22.073 76.7583 22.073Z" fill="#D2D2D2" fill-opacity="0.8"/>
<path d="M82.7109 21.7785H85.7385V12.2686H82.7109V21.7785ZM82.7109 10.9498H85.7385V8.49805H82.7109V10.9498Z" fill="#D2D2D2" fill-opacity="0.8"/>
<path d="M87.0527 24.9159H90.0803V20.7924H90.1175C90.7118 21.5911 91.5848 22.074 92.8107 22.074C95.2996 22.074 96.9527 20.1052 96.9527 17.0219C96.9527 14.1615 95.4111 11.9883 92.885 11.9883C91.5848 11.9883 90.6561 12.5641 90.006 13.4185H89.9503V12.2669H87.0527V24.9159ZM92.0306 19.7337C90.7304 19.7337 89.9874 18.675 89.9874 17.1333C89.9874 15.5917 90.6561 14.4215 91.9749 14.4215C93.2751 14.4215 93.888 15.4988 93.888 17.1333C93.888 18.7493 93.1822 19.7337 92.0306 19.7337Z" fill="#D2D2D2" fill-opacity="0.8"/>
<path d="M101.882 22.074C104.371 22.074 106.21 20.9967 106.21 18.9164C106.21 16.4832 104.241 16.056 102.569 15.7774C101.362 15.5545 100.284 15.4616 100.284 14.793C100.284 14.1986 100.86 13.92 101.603 13.92C102.439 13.92 103.015 14.18 103.126 15.0344H105.912C105.764 13.1585 104.315 11.9883 101.622 11.9883C99.3743 11.9883 97.5169 13.0284 97.5169 15.0344C97.5169 17.2633 99.2814 17.7091 100.935 17.9877C102.198 18.2106 103.349 18.3035 103.349 19.1579C103.349 19.7708 102.773 20.1052 101.863 20.1052C100.86 20.1052 100.229 19.6408 100.117 18.6935H97.2568C97.3497 20.7924 99.0957 22.074 101.882 22.074Z" fill="#D2D2D2" fill-opacity="0.8"/>
<path d="M110.322 22.0542C111.641 22.0542 112.476 21.5341 113.164 20.6054H113.219V21.7756H116.117V12.2656H113.089V17.5778C113.089 18.7108 112.458 19.491 111.418 19.491C110.452 19.491 109.988 18.9152 109.988 17.875V12.2656H106.979V18.5065C106.979 20.624 108.13 22.0542 110.322 22.0542Z" fill="#D2D2D2" fill-opacity="0.8"/>
<path d="M117.434 21.7768H120.461V16.4461C120.461 15.313 121.018 14.5144 121.966 14.5144C122.876 14.5144 123.303 15.1087 123.303 16.1303V21.7768H126.331V16.4461C126.331 15.313 126.869 14.5144 127.835 14.5144C128.745 14.5144 129.172 15.1087 129.172 16.1303V21.7768H132.2V15.5917C132.2 13.4556 131.123 11.9883 128.968 11.9883C127.742 11.9883 126.721 12.5084 125.978 13.66H125.941C125.458 12.6384 124.51 11.9883 123.266 11.9883C121.891 11.9883 120.981 12.6384 120.387 13.6228H120.331V12.2669H117.434V21.7768Z" fill="#D2D2D2" fill-opacity="0.8"/>
<path fill-rule="evenodd" clip-rule="evenodd" d="M16.7724 31.0642C25.3209 31.0642 32.2508 24.1343 32.2508 15.5858C32.2508 7.03735 25.3209 0.107422 16.7724 0.107422C8.22386 0.107422 1.29395 7.03735 1.29395 15.5858C1.29395 24.1343 8.22386 31.0642 16.7724 31.0642ZM21.6011 7.31792C21.8362 6.48302 21.0259 5.98932 20.286 6.51649L9.95654 13.8751C9.15406 14.4468 9.28029 15.5858 10.1461 15.5858H12.8662V15.5648H18.1674L13.8479 17.0889L11.9437 23.8538C11.7086 24.6887 12.5188 25.1824 13.2588 24.6552L23.5882 17.2966C24.3907 16.7249 24.2644 15.5858 23.3986 15.5858H19.2738L21.6011 7.31792Z" fill="#D2D2D2" fill-opacity="0.8"/>
</g>
<defs>
<clipPath id="clip0_283_761">
<rect width="131.567" height="31.7308" fill="white" transform="translate(0.765625)"/>
</clipPath>
</defs>
</svg>
