<svg width="131" height="32" viewBox="0 0 131 32" fill="none" xmlns="http://www.w3.org/2000/svg">
<g clip-path="url(#clip0_283_734)">
<path d="M38.3662 22.4094H47.6161V19.6233H41.6538V9.12891H38.3662V22.4094Z" fill="#D2D2D2" fill-opacity="0.8"/>
<path d="M53.0961 20.5493C51.7774 20.5493 51.0901 19.3977 51.0901 17.6703C51.0901 15.9429 51.7774 14.7727 53.0961 14.7727C54.4149 14.7727 55.1207 15.9429 55.1207 17.6703C55.1207 19.3977 54.4149 20.5493 53.0961 20.5493ZM53.1147 22.7039C56.1794 22.7039 58.1854 20.5307 58.1854 17.6703C58.1854 14.8099 56.1794 12.6367 53.1147 12.6367C50.0685 12.6367 48.0254 14.8099 48.0254 17.6703C48.0254 20.5307 50.0685 22.7039 53.1147 22.7039Z" fill="#D2D2D2" fill-opacity="0.8"/>
<path d="M63.4894 25.6934C64.9011 25.6934 66.1455 25.3776 66.9814 24.6346C67.7429 23.9474 68.2444 22.9072 68.2444 21.477V12.8958H65.3469V13.9174H65.3097C64.7525 13.1187 63.8981 12.6172 62.635 12.6172C60.2761 12.6172 58.6416 14.586 58.6416 17.3722C58.6416 20.2883 60.629 21.8857 62.7651 21.8857C63.9167 21.8857 64.641 21.4213 65.1983 20.7898H65.2726V21.7371C65.2726 22.8887 64.7339 23.5573 63.4523 23.5573C62.4493 23.5573 61.9478 23.1301 61.7806 22.6286H58.8459C59.1431 24.6161 60.8705 25.6934 63.4894 25.6934ZM63.4709 19.6382C62.3379 19.6382 61.5949 18.7095 61.5949 17.2793C61.5949 15.8305 62.3379 14.9018 63.4709 14.9018C64.7339 14.9018 65.4026 15.9791 65.4026 17.2607C65.4026 18.5981 64.7896 19.6382 63.4709 19.6382Z" fill="#D2D2D2" fill-opacity="0.8"/>
<path d="M74.2065 20.5493C72.8877 20.5493 72.2005 19.3977 72.2005 17.6703C72.2005 15.9429 72.8877 14.7727 74.2065 14.7727C75.5252 14.7727 76.2311 15.9429 76.2311 17.6703C76.2311 19.3977 75.5252 20.5493 74.2065 20.5493ZM74.225 22.7039C77.2898 22.7039 79.2954 20.5307 79.2954 17.6703C79.2954 14.8099 77.2898 12.6367 74.225 12.6367C71.1789 12.6367 69.1357 14.8099 69.1357 17.6703C69.1357 20.5307 71.1789 22.7039 74.225 22.7039Z" fill="#D2D2D2" fill-opacity="0.8"/>
<path d="M80.1758 22.4094H83.2034V12.8995H80.1758V22.4094ZM80.1758 11.5807H83.2034V9.12891H80.1758V11.5807Z" fill="#D2D2D2" fill-opacity="0.8"/>
<path d="M84.5195 25.5448H87.5471V21.4213H87.5843C88.1786 22.22 89.0516 22.7029 90.2775 22.7029C92.7664 22.7029 94.4195 20.7341 94.4195 17.6508C94.4195 14.7904 92.8779 12.6172 90.3518 12.6172C89.0516 12.6172 88.1229 13.193 87.4728 14.0474H87.4171V12.8958H84.5195V25.5448ZM89.4974 20.3626C88.1972 20.3626 87.4542 19.3039 87.4542 17.7622C87.4542 16.2206 88.1229 15.0504 89.4417 15.0504C90.7419 15.0504 91.3548 16.1277 91.3548 17.7622C91.3548 19.3782 90.649 20.3626 89.4974 20.3626Z" fill="#D2D2D2" fill-opacity="0.8"/>
<path d="M99.3466 22.7029C101.836 22.7029 103.674 21.6256 103.674 19.5453C103.674 17.1121 101.706 16.6849 100.034 16.4063C98.8266 16.1834 97.7493 16.0905 97.7493 15.4219C97.7493 14.8275 98.3251 14.5489 99.068 14.5489C99.9039 14.5489 100.48 14.8089 100.591 15.6633H103.377C103.229 13.7874 101.78 12.6172 99.0866 12.6172C96.8391 12.6172 94.9817 13.6573 94.9817 15.6633C94.9817 17.8922 96.7463 18.338 98.3994 18.6166C99.6624 18.8395 100.814 18.9324 100.814 19.7868C100.814 20.3997 100.238 20.7341 99.3281 20.7341C98.3251 20.7341 97.6935 20.2697 97.5821 19.3224H94.7217C94.8146 21.4213 96.5605 22.7029 99.3466 22.7029Z" fill="#D2D2D2" fill-opacity="0.8"/>
<path d="M107.79 22.6831C109.108 22.6831 109.944 22.163 110.631 21.2343H110.687V22.4045H113.585V12.8945H110.557V18.2067C110.557 19.3397 109.926 20.1199 108.885 20.1199C107.92 20.1199 107.455 19.5441 107.455 18.5039V12.8945H104.446V19.1354C104.446 21.2529 105.598 22.6831 107.79 22.6831Z" fill="#D2D2D2" fill-opacity="0.8"/>
<path d="M114.898 22.4057H117.926V17.075C117.926 15.942 118.483 15.1433 119.431 15.1433C120.341 15.1433 120.768 15.7376 120.768 16.7592V22.4057H123.795V17.075C123.795 15.942 124.334 15.1433 125.3 15.1433C126.21 15.1433 126.637 15.7376 126.637 16.7592V22.4057H129.665V16.2206C129.665 14.0845 128.588 12.6172 126.433 12.6172C125.207 12.6172 124.185 13.1373 123.443 14.2889H123.405C122.922 13.2673 121.975 12.6172 120.731 12.6172C119.356 12.6172 118.446 13.2673 117.852 14.2517H117.796V12.8958H114.898V22.4057Z" fill="#D2D2D2" fill-opacity="0.8"/>
<path d="M19.8962 1.53045L16.8524 0.714844L14.2873 10.2879L11.9715 1.64528L8.92756 2.46089L11.4297 11.7986L5.19754 5.56654L2.96928 7.79481L9.80511 14.6307L1.29216 12.3496L0.476562 15.3935L9.77803 17.8858C9.67153 17.4265 9.61519 16.9479 9.61519 16.4561C9.61519 12.9754 12.4369 10.1536 15.9177 10.1536C19.3985 10.1536 22.2202 12.9754 22.2202 16.4561C22.2202 16.9447 22.1646 17.4204 22.0594 17.877L30.5127 20.142L31.3282 17.0982L21.9898 14.5959L30.5033 12.3147L29.6877 9.27091L20.3496 11.773L26.5817 5.54095L24.3534 3.31269L17.6124 10.0537L19.8962 1.53045Z" fill="#D2D2D2" fill-opacity="0.8"/>
<path d="M22.0503 17.9141C21.7893 19.0174 21.2384 20.0085 20.4824 20.8026L26.6065 26.9268L28.8347 24.6985L22.0503 17.9141Z" fill="#D2D2D2" fill-opacity="0.8"/>
<path d="M20.4227 20.8633C19.6576 21.6447 18.6907 22.2279 17.6064 22.5284L19.8349 30.8449L22.8787 30.0293L20.4227 20.8633Z" fill="#D2D2D2" fill-opacity="0.8"/>
<path d="M17.49 22.5599C16.987 22.6892 16.4597 22.7579 15.9164 22.7579C15.3342 22.7579 14.7705 22.679 14.2353 22.5312L12.0049 30.8554L15.0487 31.671L17.49 22.5599Z" fill="#D2D2D2" fill-opacity="0.8"/>
<path d="M14.1267 22.5002C13.059 22.1848 12.1093 21.5942 11.3598 20.8105L5.2207 26.9497L7.44897 29.1779L14.1267 22.5002Z" fill="#D2D2D2" fill-opacity="0.8"/>
<path d="M11.3093 20.7552C10.5727 19.9665 10.0361 18.9886 9.78071 17.9023L1.2998 20.1748L2.1154 23.2186L11.3093 20.7552Z" fill="#D2D2D2" fill-opacity="0.8"/>
</g>
<defs>
<clipPath id="clip0_283_734">
<rect width="130.019" height="31.7308" fill="white" transform="translate(0.230469)"/>
</clipPath>
</defs>
</svg>
