<svg width="148" height="33" viewBox="0 0 148 33" fill="none" xmlns="http://www.w3.org/2000/svg">
<path d="M42.4795 17.1617C42.5087 16.598 42.5087 16.0331 42.4795 15.4694H10.3688C10.362 15.6098 10.3561 15.7512 10.3527 15.8925H3.62577L3.62239 16.104H0V16.5271H3.62154L3.62662 16.7386H10.3527C10.3561 16.8808 10.3612 17.0212 10.3696 17.1617H19.5885C19.5535 16.881 19.5359 16.5984 19.536 16.3155H33.0745C33.0745 16.6024 33.0575 16.885 33.022 17.1617H42.4795ZM42.4126 14.6232H32.8621C32.7878 14.3353 32.6945 14.0526 32.5828 13.7771H20.0302C19.9193 14.0512 19.8254 14.333 19.7509 14.6232H10.4348C10.45 14.4819 10.4669 14.3406 10.4855 14.2002H3.75862L3.78738 13.9937H0V13.5706H3.85423L3.89315 13.354H10.6201C10.6455 13.2127 10.6742 13.0714 10.7047 12.9309H42.1444C42.2628 13.4852 42.3534 14.0495 42.4126 14.6232ZM41.9388 12.0848H31.5903C31.3462 11.7801 31.0765 11.497 30.7839 11.2386H21.8282C21.5363 11.4975 21.2655 11.7802 21.0218 12.0848H10.9103C10.9484 11.9435 10.989 11.8022 11.0313 11.6617H4.30438L4.37885 11.4239H0V11H4.52015L4.58615 10.8147H11.3131C11.3638 10.6725 11.418 10.5321 11.4738 10.3916H41.3744C41.5927 10.9416 41.7814 11.5077 41.9388 12.0848ZM41.0105 9.54631H11.8377C11.9037 9.40415 11.9714 9.26369 12.0416 9.12323H5.31554L5.43485 8.88969H0V8.46662H5.66415L5.77162 8.27708H12.4985C12.5806 8.13492 12.6652 7.99362 12.7515 7.854H40.0967C40.4335 8.39723 40.7398 8.96246 41.0105 9.54631ZM10.4348 18.0078H42.4135C42.3534 18.5815 42.2628 19.1468 42.1444 19.7002H32.1699C32.3265 19.4294 32.4652 19.1468 32.5837 18.854H20.0285C20.1469 19.1468 20.2848 19.4294 20.4414 19.7002H10.7038C10.6737 19.5595 10.6455 19.4185 10.6192 19.2771H3.89315C3.87937 19.2027 3.86612 19.1282 3.85338 19.0537H0V18.6306H3.78654C3.77682 18.5641 3.76752 18.4975 3.75862 18.4309H10.4855C10.4668 18.2901 10.4498 18.1491 10.4348 18.0078ZM10.9095 20.5463H41.9379C41.7814 21.1242 41.5927 21.6886 41.3744 22.2386H29.5858C30.0145 22.0006 30.4162 21.7169 30.7839 21.3925H21.8282C22.1959 21.7169 22.5976 22.0006 23.0264 22.2386H11.4738C11.4183 22.0983 11.3647 21.9573 11.3131 21.8155H4.58615L4.51339 21.6116H0V21.1885H4.37292C4.34984 21.1156 4.32728 21.0426 4.30523 20.9694H11.0313C10.989 20.8289 10.9484 20.6885 10.9095 20.5463ZM11.8377 23.0848H41.0105C40.74 23.6666 40.4349 24.2317 40.0967 24.7771H12.7515C12.6648 24.6374 12.5801 24.4963 12.4977 24.354H5.77162C5.72931 24.2812 5.68785 24.2085 5.64723 24.1348H0V23.7118H5.41962L5.31554 23.5087H12.0425C11.9721 23.3687 11.9039 23.2276 11.8377 23.0856V23.0848ZM14.3169 26.8925C14.4413 27.0363 14.5691 27.1768 14.6994 27.3155H38.1488C38.6483 26.7834 39.111 26.218 39.534 25.6232H13.3142C13.4158 25.7662 13.519 25.9075 13.6256 26.0463H6.89869L7.06623 26.2621H0V26.6852H7.41231C7.47069 26.7554 7.52992 26.8239 7.59 26.8925H14.3169ZM17.1236 29.4309C17.3292 29.5773 17.5382 29.7186 17.7498 29.854H35.0985C35.8773 29.3539 36.6116 28.7877 37.2934 28.1617H15.5557C15.7122 28.3055 15.8722 28.4468 16.0346 28.5848H9.30769C9.39908 28.6626 9.49131 28.7388 9.58439 28.8132H0V29.2363H10.1302C10.2182 29.3023 10.3078 29.3675 10.3975 29.4309H17.1245H17.1236ZM23.0611 32.0405C24.1458 32.2715 25.2704 32.3925 26.4237 32.3925C29.0078 32.3925 31.449 31.7832 33.6118 30.7002H19.2356C19.5368 30.8508 19.8423 30.9921 20.1528 31.1232H13.4259C13.5461 31.174 13.6671 31.2239 13.7881 31.2722H0V31.6952H14.9981C16.4848 32.1488 18.0628 32.3925 19.6976 32.3925C20.8509 32.3925 21.9763 32.2715 23.0611 32.0405ZM13.3142 7.00785H39.534C39.111 6.4131 38.6483 5.8477 38.1488 5.31554H14.6994C14.5691 5.45431 14.4413 5.59477 14.3161 5.73862H7.59L7.44108 5.91292H0V6.336H7.09246C7.02731 6.41808 6.963 6.501 6.89954 6.58477H13.6256C13.519 6.72438 13.4158 6.86569 13.3142 7.00785ZM15.5548 4.46938H37.2925C36.611 3.84344 35.877 3.27725 35.0985 2.77708H17.7498C17.5382 2.91331 17.3292 3.05462 17.1236 3.20015H10.3975C10.3045 3.267 10.2114 3.33385 10.12 3.40238H0V3.82546H9.57508C9.48539 3.89823 9.39654 3.97185 9.30854 4.04631H16.0346C15.8722 4.18423 15.7122 4.32554 15.5548 4.46938ZM19.2365 1.93092H33.6126C31.3812 0.814368 28.9197 0.23485 26.4245 0.238615C25.2704 0.238615 24.1458 0.360462 23.0611 0.591462C21.9554 0.3564 20.828 0.238136 19.6976 0.238615C17.8919 0.238615 16.1565 0.536461 14.5361 1.08477H0V1.50785H20.1528C19.843 1.63919 19.5374 1.78029 19.2365 1.93092ZM94.1329 0C94.6889 0 95.1255 0.138769 95.4428 0.416308C95.7736 0.681154 95.9386 1.05092 95.9386 1.52815C95.9386 2.00454 95.7736 2.38108 95.4428 2.65862C95.1255 2.92346 94.6889 3.05631 94.1329 3.05631C93.5779 3.05631 93.1345 2.92346 92.8036 2.65862C92.4863 2.38108 92.3272 2.00454 92.3272 1.52815C92.3272 1.05177 92.4863 0.682 92.8036 0.416308C93.1345 0.138769 93.5779 0 94.1329 0ZM95.6805 4.90092V13.5325C95.6805 14.0885 95.7736 14.4658 95.9589 14.6638C96.1569 14.8627 96.4878 14.9617 96.9506 14.9617V15.378C96.5805 15.3599 96.2101 15.3467 95.8396 15.3382C95.3307 15.3116 94.8211 15.2983 94.3115 15.2985C93.7962 15.2985 93.2732 15.312 92.7444 15.3382C92.3474 15.347 91.9505 15.3602 91.5539 15.378V14.9617C92.0167 14.9617 92.3408 14.8627 92.5261 14.6638C92.7241 14.4658 92.8239 14.0885 92.8239 13.5325V7.282C92.8239 6.68715 92.7309 6.24969 92.5455 5.973C92.3738 5.68192 92.0429 5.53638 91.5539 5.53638V5.11923C91.9769 5.159 92.3873 5.17846 92.7842 5.17846C93.3392 5.17846 93.8554 5.159 94.3318 5.11923C94.8209 5.06677 95.271 4.994 95.6805 4.90092Z" fill="#D2D2D2" fill-opacity="0.8"/>
<path fill-rule="evenodd" clip-rule="evenodd" d="M101.264 6.72225V4.90133C100.855 4.9944 100.405 5.06717 99.9155 5.11963C99.4256 5.1594 98.9094 5.17887 98.367 5.17887C97.9702 5.17887 97.5606 5.1594 97.1367 5.11963V5.53679C97.6131 5.53679 97.9439 5.68233 98.1293 5.9734C98.3146 6.25094 98.4068 6.68756 98.4068 7.2824V17.2044C98.4068 17.7333 98.3146 18.0903 98.1293 18.2756C97.9575 18.4609 97.6529 18.5532 97.2163 18.5532V18.9703L98.268 18.9111C98.7508 18.8976 99.2337 18.8909 99.7166 18.8908C100.391 18.8908 101.026 18.8976 101.621 18.9102C102.23 18.9373 102.706 18.9568 103.05 18.9695V18.5532C102.495 18.5532 102.058 18.4474 101.741 18.2359C101.423 18.0379 101.264 17.6275 101.264 17.0056V15.0171C101.439 15.1626 101.643 15.2828 101.879 15.3784C102.302 15.5646 102.772 15.6568 103.288 15.6568C103.99 15.6568 104.618 15.5307 105.173 15.2794C105.739 15.0309 106.236 14.6498 106.622 14.1684C107.032 13.6658 107.343 13.0506 107.555 12.3229C107.78 11.5952 107.892 10.7491 107.892 9.78279C107.892 8.68533 107.733 7.77233 107.416 7.04463C107.098 6.3034 106.675 5.7551 106.146 5.39802C105.617 5.0276 104.985 4.83309 104.34 4.8421C103.573 4.8421 102.898 5.0401 102.316 5.43694C101.858 5.74579 101.508 6.17394 101.264 6.7231V6.72225ZM101.264 7.40425V14.5974C101.374 14.7277 101.507 14.836 101.661 14.9223C101.912 15.0543 102.197 15.1203 102.515 15.1203C103.11 15.1203 103.579 14.9223 103.924 14.5255C104.267 14.1151 104.512 13.5465 104.657 12.8188C104.816 12.0784 104.896 11.1984 104.896 10.1796C104.896 9.0424 104.823 8.14887 104.678 7.50071C104.532 6.85256 104.333 6.38971 104.082 6.11217C103.831 5.83379 103.527 5.69502 103.169 5.69502C102.693 5.69502 102.257 5.88117 101.86 6.25094C101.561 6.53863 101.362 6.92363 101.264 7.40425Z" fill="#D2D2D2" fill-opacity="0.8"/>
<path d="M112.447 4.84199C113.003 4.84199 113.485 4.91476 113.896 5.0603C114.319 5.1923 114.623 5.32514 114.809 5.45714C115.258 5.76176 115.536 5.56291 115.642 4.86145H116.059C116.032 5.23207 116.012 5.68899 115.999 6.23053C115.986 6.76022 115.979 7.4676 115.979 8.35437H115.563C115.495 7.85824 115.368 7.37194 115.185 6.90576C115.017 6.45332 114.737 6.05058 114.372 5.73468C114.028 5.43007 113.578 5.27776 113.023 5.27776C112.639 5.27776 112.315 5.39114 112.05 5.61622C111.785 5.82776 111.653 6.1383 111.653 6.54868C111.653 6.94553 111.773 7.29583 112.011 7.60045C112.249 7.89153 112.553 8.17583 112.924 8.45337C113.307 8.71822 113.704 9.00253 114.114 9.3063C114.551 9.63714 114.948 9.96799 115.305 10.2988C115.647 10.5981 115.935 10.9538 116.158 11.3506C116.37 11.7339 116.476 12.19 116.476 12.7197C116.476 13.3145 116.303 13.8366 115.96 14.2868C115.615 14.7234 115.159 15.061 114.59 15.2988C114.035 15.5374 113.413 15.6567 112.726 15.6567C112.365 15.6608 112.005 15.6207 111.653 15.5374C111.378 15.4688 111.112 15.3689 110.86 15.2395C110.688 15.16 110.522 15.0872 110.364 15.0212C110.229 14.947 110.09 14.8808 109.947 14.8232C109.815 14.7834 109.695 14.8291 109.59 14.962C109.497 15.094 109.425 15.2793 109.371 15.5171H108.955C108.981 15.094 109.002 14.5778 109.014 13.9694C109.028 13.3611 109.035 12.5538 109.035 11.5494H109.451C109.53 12.2636 109.676 12.8982 109.888 13.4533C110.099 13.9965 110.383 14.4264 110.74 14.7437C111.111 15.0483 111.574 15.2006 112.13 15.2006C112.355 15.2006 112.573 15.1541 112.785 15.061C112.996 14.9679 113.168 14.8156 113.301 14.6041C113.446 14.3925 113.519 14.1218 113.519 13.7918C113.519 13.2088 113.327 12.7256 112.943 12.3423C112.573 11.959 112.097 11.5418 111.515 11.0925C111.092 10.7481 110.688 10.4114 110.305 10.0805C109.949 9.75532 109.642 9.38124 109.392 8.96953C109.15 8.54688 109.027 8.06694 109.035 7.58014C109.035 6.9853 109.193 6.48268 109.51 6.0723C109.834 5.65763 110.267 5.34147 110.761 5.1593C111.297 4.94629 111.87 4.83856 112.447 4.84199ZM137.08 5.0603C136.735 4.91476 136.286 4.84199 135.73 4.84199C135.108 4.83567 134.494 4.9858 133.945 5.2786C133.402 5.55614 132.972 6.02576 132.654 6.68745V4.90207C132.245 4.9943 131.794 5.06707 131.305 5.11953C130.829 5.1593 130.313 5.17876 129.758 5.17876C129.361 5.17876 128.951 5.1593 128.527 5.11953V5.53668C129.017 5.53668 129.347 5.68222 129.519 5.9733C129.704 6.25083 129.797 6.68745 129.797 7.2823V13.5328C129.797 14.0888 129.698 14.4661 129.5 14.6641C129.314 14.863 128.99 14.962 128.527 14.962V15.3783C128.924 15.3605 129.321 15.3473 129.718 15.3385C130.233 15.3124 130.749 15.2992 131.266 15.2988C131.728 15.2988 132.179 15.3123 132.614 15.3385C133.065 15.3521 133.395 15.3656 133.607 15.3783V14.962C133.263 14.962 133.018 14.863 132.872 14.6641C132.727 14.4661 132.654 14.0888 132.654 13.5328V8.01676C132.654 7.58014 132.74 7.19007 132.912 6.84568C133.098 6.4886 133.335 6.21107 133.626 6.01307C133.906 5.81829 134.239 5.7143 134.579 5.71522C134.884 5.71522 135.108 5.78799 135.254 5.93353C135.413 6.06553 135.518 6.2576 135.572 6.50891C135.624 6.74668 135.65 7.03099 135.65 7.36183V13.5328C135.65 14.0888 135.578 14.4661 135.432 14.6641C135.3 14.863 135.056 14.962 134.698 14.962V15.3783C134.936 15.3656 135.287 15.3521 135.75 15.3385C136.689 15.285 137.629 15.285 138.568 15.3385C139.057 15.3521 139.421 15.3656 139.659 15.3783V14.962C139.236 14.962 138.938 14.863 138.766 14.6641C138.594 14.4661 138.508 14.0888 138.508 13.5328V8.10476L138.507 8.04299L138.504 7.84245C138.534 7.51076 138.623 7.18707 138.766 6.8863C138.951 6.52837 139.189 6.24407 139.48 6.03253C139.771 5.82099 140.089 5.71522 140.433 5.71522C140.776 5.71522 141.029 5.78799 141.187 5.93353C141.359 6.06553 141.471 6.2576 141.524 6.50891C141.59 6.74668 141.623 7.03099 141.623 7.36183V13.5328C141.623 14.0888 141.551 14.4661 141.405 14.6641C141.273 14.863 141.029 14.962 140.671 14.962V15.3783C140.909 15.3656 141.26 15.3521 141.722 15.3385C142.192 15.3119 142.661 15.2986 143.131 15.2988C143.621 15.2988 144.117 15.3123 144.62 15.3385C145.122 15.3521 145.5 15.3656 145.751 15.3783V14.962C145.288 14.962 144.957 14.863 144.758 14.6641C144.573 14.4661 144.481 14.0888 144.481 13.5328V8.1953C144.481 7.5336 144.434 7.00476 144.342 6.60791C144.249 6.19753 144.098 5.86753 143.885 5.61622C143.674 5.3776 143.396 5.19314 143.052 5.0603C142.708 4.91476 142.258 4.84199 141.703 4.84199C141.029 4.84199 140.393 4.98076 139.798 5.2583C139.228 5.53076 138.766 6.0503 138.411 6.81691C138.399 6.74687 138.385 6.67717 138.369 6.60791C138.277 6.19753 138.125 5.86753 137.913 5.61622C137.701 5.3776 137.423 5.19314 137.08 5.0603ZM126.971 13.2155V4.90122C126.56 4.9943 126.111 5.06707 125.621 5.11953C125.145 5.1593 124.629 5.17876 124.073 5.17876C123.676 5.17876 123.267 5.1593 122.843 5.11953V5.53668C123.333 5.53668 123.664 5.68222 123.836 5.9733C124.021 6.25083 124.113 6.68745 124.113 7.2823V12.4811C124.113 12.9177 124.021 13.3145 123.836 13.6716C123.678 13.9985 123.439 14.279 123.141 14.4856C122.863 14.6842 122.529 14.7886 122.188 14.7834C121.858 14.7834 121.607 14.7166 121.434 14.5846C121.256 14.4286 121.131 14.2205 121.077 13.9898C121.021 13.7021 120.994 13.4096 120.998 13.1165V4.90122C120.588 4.9943 120.138 5.06707 119.649 5.11953C119.172 5.1593 118.656 5.17876 118.101 5.17876C117.704 5.17876 117.294 5.1593 116.871 5.11953V5.53668C117.36 5.53668 117.691 5.68222 117.863 5.9733C118.048 6.25083 118.14 6.68745 118.14 7.2823V12.3025C118.14 12.9507 118.187 13.4804 118.28 13.8899C118.372 14.3003 118.531 14.6311 118.755 14.8824C118.954 15.1075 119.225 15.2928 119.569 15.4384C119.913 15.5831 120.363 15.6567 120.919 15.6567C121.607 15.6567 122.228 15.5171 122.784 15.2395C123.352 14.9484 123.796 14.4721 124.113 13.8112V15.5966C124.556 15.4875 125.008 15.4145 125.463 15.3783C125.939 15.3385 126.454 15.3191 127.01 15.3191C127.421 15.3191 127.83 15.3385 128.241 15.3783V14.962C127.764 14.962 127.433 14.8232 127.248 14.5448C127.063 14.2538 126.971 13.8112 126.971 13.2164V13.2155Z" fill="#D2D2D2" fill-opacity="0.8"/>
<path fill-rule="evenodd" clip-rule="evenodd" d="M88.5879 5.37767C87.8603 5.02059 87.0133 4.84205 86.0478 4.84205C85.1086 4.84205 84.2683 5.02059 83.5279 5.37767C82.8003 5.73475 82.2249 6.31013 81.8018 7.10382C81.3914 7.89752 81.1858 8.94928 81.1858 10.2591C81.1858 11.569 81.3914 12.6199 81.8009 13.4144C82.224 14.1946 82.7994 14.7632 83.5271 15.1203C84.2683 15.4774 85.1086 15.6567 86.0478 15.6567C87.0133 15.6567 87.8603 15.4774 88.5879 15.1203C89.3148 14.7632 89.8843 14.1946 90.2938 13.4144C90.7042 12.6207 90.9089 11.569 90.9089 10.2591C90.9089 8.94928 90.7042 7.89836 90.2938 7.10382C89.8843 6.31013 89.3148 5.73475 88.5879 5.37767ZM84.7185 6.42944C85.0756 5.63575 85.5189 5.2389 86.0478 5.2389C86.5902 5.2389 87.0336 5.63575 87.3771 6.42944C87.7342 7.20959 87.9127 8.48644 87.9127 10.2591C87.9127 12.0318 87.7342 13.3087 87.3771 14.0888C87.0336 14.869 86.5902 15.2599 86.0478 15.2599C85.5189 15.2599 85.0756 14.869 84.7185 14.0888C84.3614 13.3087 84.1829 12.0318 84.1829 10.2591C84.1829 8.48644 84.3606 7.20959 84.7185 6.42944ZM74.7153 19.1091C73.8945 19.1091 73.1609 19.0363 72.5127 18.8907C71.8781 18.7587 71.3755 18.5472 71.0049 18.2561C70.6478 17.9777 70.4693 17.6342 70.4693 17.2238C70.4693 16.8134 70.6537 16.4437 71.0243 16.1128C71.3949 15.7955 71.9441 15.5442 72.6718 15.3589L72.8495 15.6762C72.6223 15.8468 72.4332 16.063 72.2944 16.3108C72.1886 16.5494 72.1353 16.794 72.1353 17.0453C72.1353 17.6012 72.3866 18.0243 72.8901 18.3145C73.4063 18.6191 74.1001 18.7714 74.9733 18.7714C75.5682 18.7714 76.0979 18.6919 76.5607 18.5337C77.0371 18.3746 77.4069 18.136 77.6717 17.8195C77.9501 17.5014 78.0889 17.1113 78.0889 16.6484C78.0889 16.2516 77.9433 15.914 77.6523 15.6364C77.3612 15.3716 76.779 15.2396 75.9058 15.2396H74.6755C74.1339 15.2396 73.6567 15.1804 73.2472 15.0611C72.8495 14.9426 72.5389 14.7564 72.3139 14.5051C72.0896 14.2411 71.9771 13.9103 71.9771 13.5134C71.9771 12.9575 72.1954 12.4684 72.632 12.0445C72.9739 11.7128 73.446 11.3972 74.0485 11.0985C73.6524 11.0493 73.2634 10.9541 72.8893 10.8151C72.2944 10.59 71.8248 10.2456 71.4813 9.78275C71.1369 9.3199 70.9651 8.72505 70.9651 7.99736C70.9651 7.26967 71.1369 6.67398 71.4813 6.21113C71.8248 5.73475 72.2944 5.39036 72.8901 5.17882C73.4849 4.95459 74.1593 4.84205 74.9133 4.84205C75.668 4.84205 76.3424 4.95459 76.9373 5.17967C77.3299 5.31844 77.6666 5.51559 77.9501 5.76944C78.1185 5.52659 78.3233 5.30998 78.5644 5.11959C79.0146 4.77605 79.4977 4.60344 80.013 4.60344C80.4361 4.60344 80.7543 4.72275 80.9658 4.96136C81.1909 5.18559 81.3034 5.48344 81.3034 5.85405C81.3034 6.2509 81.1968 6.5479 80.9853 6.74675C80.7737 6.9329 80.5359 7.02513 80.2711 7.02513C80.0382 7.02205 79.8137 6.93764 79.6365 6.78652C79.4503 6.62744 79.3454 6.38967 79.3192 6.07236C79.2963 5.78805 79.3759 5.43605 79.5578 5.01467C79.1719 5.17882 78.8741 5.36582 78.6643 5.57652C78.506 5.72904 78.3679 5.90106 78.253 6.08844C78.2852 6.12821 78.3165 6.16967 78.3461 6.21113C78.6905 6.67398 78.8623 7.26882 78.8623 7.99652C78.8623 8.72421 78.6905 9.3199 78.3461 9.78275C78.0026 10.2456 77.5329 10.59 76.9373 10.8151C76.3424 11.0393 75.668 11.1518 74.9133 11.1518C74.8004 11.1519 74.6875 11.1494 74.5748 11.1442C74.3963 11.2652 74.2245 11.3938 74.0603 11.5292C73.9584 11.609 73.8766 11.7115 73.8215 11.8287C73.7664 11.9458 73.7395 12.0742 73.743 12.2036C73.743 12.6267 74.0079 12.8382 74.5367 12.8382H76.6995C77.4272 12.8382 78.0753 12.9245 78.6439 13.0963C79.2261 13.2689 79.6822 13.5532 80.013 13.9501C80.3574 14.3334 80.5292 14.836 80.5292 15.4579C80.5292 16.1061 80.3176 16.7077 79.8946 17.2636C79.4842 17.8195 78.8496 18.2621 77.989 18.5929C77.1293 18.9373 76.0378 19.1091 74.7153 19.1091ZM74.9133 10.7947C75.2712 10.7947 75.5479 10.5967 75.7467 10.1999C75.9456 9.78952 76.0446 9.05505 76.0446 7.99736C76.0446 6.93882 75.9456 6.21113 75.7467 5.81429C75.5487 5.4039 75.2712 5.19913 74.9141 5.19913C74.5697 5.19913 74.2922 5.4039 74.0806 5.81429C73.8818 6.21113 73.7828 6.93882 73.7828 7.99736C73.7828 9.05505 73.8818 9.78952 74.0806 10.1999C74.2922 10.5967 74.5697 10.7947 74.9133 10.7947ZM67.9003 5.37767C67.1726 5.02059 66.3265 4.84205 65.361 4.84205C64.4218 4.84205 63.5816 5.02059 62.8412 5.37767C62.1135 5.73475 61.5381 6.31013 61.115 7.10382C60.7046 7.89752 60.499 8.94928 60.499 10.2591C60.499 11.569 60.7046 12.6199 61.1142 13.4144C61.5373 14.1946 62.1126 14.7632 62.8403 15.1203C63.5816 15.4774 64.4218 15.6567 65.361 15.6567C66.3265 15.6567 67.1735 15.4774 67.9003 15.1203C68.628 14.7632 69.1966 14.1946 69.607 13.4144C70.0174 12.6207 70.2222 11.569 70.2222 10.2591C70.2222 8.94928 70.0174 7.89836 69.607 7.10382C69.1975 6.31013 68.628 5.73475 67.9003 5.37767ZM64.0309 6.42944C64.3888 5.63575 64.8313 5.2389 65.361 5.2389C65.9026 5.2389 66.3459 5.63575 66.6895 6.42944C67.0474 7.20959 67.2259 8.48644 67.2259 10.2591C67.2259 12.0318 67.0474 13.3087 66.6903 14.0888C66.3459 14.869 65.9034 15.2599 65.361 15.2599C64.8313 15.2599 64.3879 14.869 64.0309 14.0888C63.6738 13.3087 63.4953 12.0318 63.4953 10.2591C63.4953 8.48644 63.6738 7.20959 64.0309 6.42944Z" fill="#D2D2D2" fill-opacity="0.8"/>
<path d="M55.155 1.32812V1.72582C54.7057 1.73851 54.3613 1.79097 54.1235 1.88405C54.0147 1.9209 53.9163 1.98343 53.8368 2.06636C53.7572 2.14928 53.6989 2.25016 53.6666 2.36043C53.5879 2.58466 53.5481 2.94259 53.5481 3.43166V13.5119C53.5481 13.9214 53.5744 14.226 53.6277 14.4249C53.6937 14.6229 53.813 14.7549 53.9847 14.8217C54.17 14.8877 54.4417 14.9207 54.7979 14.9207H55.771C56.2194 14.9207 56.6434 14.815 57.0402 14.6034C57.4379 14.3919 57.7941 14.094 58.1114 13.7099C58.4461 13.2832 58.714 12.8082 58.906 12.301C59.1175 11.7595 59.2757 11.157 59.3815 10.4954H59.8384C59.7987 10.9455 59.7792 11.5277 59.7792 12.2418C59.7792 12.5464 59.7851 12.989 59.7987 13.5711C59.8122 14.1533 59.8511 14.7557 59.9171 15.3768C59.157 15.3488 58.3965 15.3355 57.6359 15.3371C56.7897 15.3244 56.035 15.3176 55.3733 15.3176H54.104C53.5879 15.3176 53.032 15.3244 52.4371 15.3371C51.8414 15.3371 51.2398 15.3438 50.6314 15.3574C50.0222 15.3574 49.4468 15.3641 48.9053 15.3768V14.98C49.3284 14.9537 49.6457 14.9004 49.8572 14.8217C50.0687 14.7422 50.2075 14.5831 50.2744 14.3454C50.353 14.1067 50.3928 13.7497 50.3928 13.2733V3.43166C50.3928 2.94174 50.353 2.58551 50.2744 2.36043C50.2483 2.25036 50.1945 2.14879 50.1181 2.0654C50.0416 1.98201 49.9451 1.91958 49.8377 1.88405C49.6262 1.79097 49.3148 1.73851 48.9053 1.72497V1.32812C49.9498 1.36683 50.995 1.38657 52.0403 1.38736C52.6224 1.38736 53.191 1.38143 53.7461 1.36789C54.3156 1.35436 54.7852 1.34166 55.155 1.32812Z" fill="#D2D2D2" fill-opacity="0.8"/>
<path fill-rule="evenodd" clip-rule="evenodd" d="M143.737 31.7756C143.709 31.6334 143.727 31.4481 143.794 31.2197L146.589 21.0938C146.141 21.2773 145.678 21.4203 145.205 21.5211C144.721 21.6167 144.165 21.6683 143.537 21.6784L143.437 21.978C143.903 21.978 144.193 22.0541 144.308 22.2064C144.421 22.3587 144.435 22.5957 144.35 22.9189L143.688 25.4142C143.647 25.2938 143.575 25.1861 143.48 25.1011C143.318 24.9488 143.095 24.8727 142.81 24.8727C142.24 24.8727 141.712 25.0013 141.227 25.2577C140.739 25.5241 140.3 25.8715 139.929 26.2849C139.539 26.7038 139.208 27.1741 138.945 27.6827C138.686 28.1777 138.48 28.6987 138.331 29.2371C138.196 29.7009 138.124 30.1807 138.117 30.6637C138.117 31.1198 138.189 31.4955 138.331 31.79C138.474 32.0751 138.669 32.2892 138.916 32.4314C139.163 32.5651 139.439 32.6311 139.743 32.6311C140.209 32.6311 140.628 32.494 140.998 32.2181C141.369 31.933 141.716 31.4955 142.04 30.9058C142.175 30.6654 142.312 30.3955 142.447 30.096L142.353 30.4497C142.267 30.7283 142.21 31.0149 142.182 31.3051C142.163 31.5522 142.182 31.7621 142.24 31.933C142.353 32.3984 142.705 32.6319 143.295 32.6319C143.513 32.6319 143.737 32.5887 143.965 32.5033C144.193 32.4178 144.407 32.2706 144.606 32.0607C144.816 31.8517 144.982 31.5531 145.106 31.1621L145.448 30.1214H145.178L144.949 30.7627C144.778 31.2484 144.617 31.5759 144.464 31.7468C144.321 31.9093 144.174 31.9897 144.022 31.9897C143.86 31.9897 143.765 31.9186 143.737 31.7756ZM142.976 28.1033C142.868 28.4511 142.752 28.7819 142.625 29.0941C142.387 29.7034 142.135 30.2263 141.868 30.6637C141.612 31.0911 141.36 31.4236 141.113 31.6622C140.866 31.8898 140.646 32.0041 140.457 32.0041C140.276 32.0041 140.143 31.9186 140.057 31.7477C139.981 31.5666 139.943 31.2958 139.943 30.9345C139.943 30.4209 140 29.898 140.114 29.3658C140.228 28.8242 140.385 28.3055 140.585 27.8114C140.768 27.3476 140.998 26.9032 141.269 26.4846C141.526 26.0852 141.797 25.7713 142.082 25.5428C142.377 25.3144 142.667 25.201 142.952 25.201C143.142 25.201 143.295 25.2678 143.409 25.4007C143.489 25.487 143.549 25.6122 143.592 25.7781L142.976 28.1033Z" fill="#D2D2D2" fill-opacity="0.8"/>
<path d="M134.246 32.4318H132.492L134.203 26.2853C134.289 26.0001 134.317 25.8005 134.289 25.6862C134.261 25.572 134.175 25.5153 134.032 25.5153C133.852 25.5153 133.685 25.6058 133.533 25.7861C133.381 25.9663 133.224 26.2853 133.062 26.7422L132.82 27.4115H132.549L132.919 26.342C133.053 25.9612 133.219 25.6676 133.419 25.4578C133.618 25.2395 133.838 25.0871 134.075 25.0017C134.313 24.9162 134.555 24.8731 134.802 24.8731C135.107 24.8731 135.33 24.9348 135.472 25.0592C135.625 25.1828 135.72 25.3444 135.758 25.5441C135.806 25.7593 135.816 25.9813 135.786 26.1998C135.768 26.4283 135.73 26.6517 135.672 26.87L135.443 27.7644L135.501 27.6121C135.768 26.9368 136.024 26.3995 136.271 26.0001C136.528 25.5915 136.799 25.3012 137.084 25.1303C137.364 24.9605 137.685 24.8714 138.012 24.8731C138.353 24.8731 138.615 24.9729 138.796 25.1726C138.986 25.3723 139.081 25.6194 139.081 25.9147C139.081 26.1516 139.024 26.3758 138.91 26.5848C138.799 26.781 138.643 26.9473 138.453 27.0697C138.273 27.1839 138.064 27.2406 137.826 27.2406C137.589 27.2406 137.398 27.1788 137.255 27.0553C137.122 26.9318 137.056 26.7507 137.056 26.5138C137.056 26.3039 137.104 26.1144 137.198 25.9426C137.29 25.7754 137.417 25.6297 137.569 25.5153C137.721 25.3918 137.888 25.3063 138.068 25.2581C138.048 25.2385 138.024 25.224 137.997 25.2158C137.965 25.2057 137.931 25.2008 137.897 25.2014C137.688 25.2014 137.474 25.2775 137.255 25.4298C137.037 25.572 136.808 25.8055 136.571 26.1288C136.333 26.452 136.091 26.8793 135.844 27.4115C135.565 28.0409 135.317 28.6836 135.102 29.3374C134.994 29.6538 134.886 29.994 134.778 30.3587L134.246 32.4318Z" fill="#D2D2D2" fill-opacity="0.8"/>
<path fill-rule="evenodd" clip-rule="evenodd" d="M128.917 30.228L128.857 30.4497C128.767 30.7717 128.705 31.101 128.671 31.4337C128.643 31.7384 128.69 31.9947 128.813 32.2037C129.004 32.4889 129.327 32.6319 129.783 32.6319C130.002 32.6319 130.221 32.5887 130.44 32.5033C130.667 32.4178 130.881 32.2706 131.081 32.0607C131.281 31.8424 131.448 31.5378 131.58 31.1486L131.937 30.1078H131.666L131.452 30.7492C131.281 31.2434 131.115 31.5717 130.953 31.7333C130.792 31.8941 130.634 31.9753 130.482 31.9753C130.359 31.9753 130.278 31.9372 130.24 31.8611C130.21 31.7642 130.2 31.6623 130.211 31.5615C130.23 31.4406 130.258 31.3215 130.297 31.2053L132.137 24.8727C131.851 24.9411 131.56 24.9889 131.266 25.0157C130.972 25.0444 130.654 25.0631 130.311 25.0724L130.105 25.8356C130.096 25.6418 130.04 25.4532 129.941 25.2864C129.866 25.1565 129.758 25.0492 129.627 24.9763C129.496 24.9034 129.348 24.8676 129.198 24.8727C128.78 24.8727 128.362 25.0013 127.944 25.2577C127.499 25.5374 127.099 25.8839 126.76 26.2849C126.376 26.7223 126.041 27.2004 125.761 27.7107C125.481 28.2224 125.256 28.7628 125.091 29.3226C124.936 29.8263 124.854 30.3499 124.849 30.877C124.849 31.4101 124.973 31.8374 125.22 32.1606C125.467 32.4745 125.847 32.6311 126.36 32.6311C126.722 32.6311 127.069 32.527 127.402 32.318C127.744 32.1081 128.067 31.7612 128.372 31.2772C128.56 30.9853 128.742 30.6358 128.917 30.228ZM127.687 31.6758C127.468 31.8754 127.273 31.9753 127.103 31.9753C126.96 31.9753 126.85 31.9042 126.774 31.7612C126.707 31.6089 126.674 31.3576 126.674 31.0056C126.674 30.5013 126.731 29.9834 126.845 29.4512C126.96 28.9181 127.112 28.4054 127.302 27.9112C127.502 27.4162 127.72 26.9745 127.958 26.5844C128.196 26.1952 128.434 25.8855 128.671 25.6571C128.918 25.4286 129.151 25.3152 129.37 25.3152C129.598 25.3152 129.759 25.4294 129.855 25.6571C129.95 25.8635 129.974 26.1402 129.929 26.4863L129.507 28.0449L129.556 27.797C129.403 28.4054 129.222 28.9664 129.013 29.48C128.831 29.9391 128.612 30.3826 128.357 30.8059C128.129 31.1765 127.906 31.4668 127.687 31.6758ZM122.932 31.2197C122.865 31.4481 122.846 31.6334 122.875 31.7756C122.903 31.9186 122.999 31.9897 123.16 31.9897C123.313 31.9897 123.46 31.9093 123.602 31.7477C123.754 31.5759 123.916 31.2484 124.087 30.7627L124.315 30.1214H124.586L124.244 31.1621C124.121 31.5522 123.954 31.8517 123.745 32.0607C123.567 32.2551 123.348 32.4064 123.103 32.5033C122.889 32.5863 122.662 32.6299 122.433 32.6319C121.844 32.6319 121.492 32.3984 121.377 31.933C121.317 31.7295 121.298 31.5161 121.321 31.3051C121.339 31.0581 121.396 30.7721 121.492 30.4497L121.586 30.096C121.449 30.3955 121.313 30.6654 121.178 30.9058C120.855 31.4955 120.508 31.933 120.137 32.2173C119.776 32.4902 119.334 32.636 118.881 32.6319C118.578 32.6319 118.302 32.5642 118.055 32.4322C117.8 32.2815 117.596 32.0578 117.47 31.79C117.327 31.4955 117.256 31.1198 117.256 30.6637C117.256 30.2263 117.327 29.7499 117.47 29.2371C117.612 28.7142 117.817 28.1964 118.083 27.6827C118.346 27.1743 118.677 26.7041 119.067 26.2849C119.457 25.8567 119.889 25.5149 120.365 25.2577C120.852 25.0003 121.396 24.868 121.948 24.8727C122.233 24.8727 122.456 24.9488 122.618 25.1011C122.711 25.1832 122.781 25.2873 122.827 25.4142L123.488 22.9189C123.574 22.5957 123.56 22.3579 123.445 22.2056C123.331 22.0533 123.041 21.9771 122.576 21.9771L122.675 21.6784C123.235 21.6752 123.794 21.6226 124.344 21.5211C124.817 21.4203 125.28 21.2773 125.728 21.0938L122.932 31.2197ZM121.762 29.0941C121.889 28.7811 122.007 28.4511 122.114 28.1033L122.73 25.7781C122.701 25.6392 122.638 25.5097 122.547 25.4007C122.491 25.3351 122.421 25.2831 122.342 25.2485C122.263 25.2139 122.177 25.1977 122.091 25.201C121.806 25.201 121.515 25.3152 121.221 25.5428C120.935 25.7713 120.664 26.0852 120.408 26.4846C120.136 26.9027 119.907 27.3469 119.723 27.8105C119.521 28.3139 119.363 28.8344 119.253 29.3658C119.14 29.8811 119.083 30.407 119.081 30.9345C119.081 31.2958 119.119 31.5666 119.195 31.7468C119.281 31.9186 119.414 32.0041 119.595 32.0041C119.785 32.0041 120.003 31.8898 120.25 31.6614C120.498 31.4244 120.75 31.0911 121.007 30.6629C121.303 30.1626 121.556 29.6377 121.762 29.0941Z" fill="#D2D2D2" fill-opacity="0.8"/>
<path d="M109.404 32.4317H111.158L111.323 31.787L111.315 31.8335C111.496 31.1676 111.7 30.5262 111.928 29.9077C112.15 29.3174 112.398 28.7369 112.67 28.168C112.927 27.6349 113.183 27.1695 113.44 26.7701C113.697 26.3707 113.944 26.0619 114.182 25.8427C114.419 25.6143 114.638 25.5009 114.837 25.5009C114.999 25.5009 115.099 25.5576 115.137 25.6718C115.176 25.8014 115.181 25.9391 115.151 26.0712C115.123 26.2258 115.085 26.3784 115.037 26.5281L113.74 30.45C113.606 30.8494 113.53 31.1913 113.512 31.4764C113.492 31.7616 113.545 31.9951 113.668 32.1754C113.764 32.3184 113.897 32.4275 114.067 32.5037C114.249 32.5883 114.463 32.6323 114.71 32.6323C114.937 32.6323 115.166 32.5891 115.394 32.5037C115.632 32.4275 115.85 32.2845 116.05 32.0755C116.259 31.8665 116.431 31.5619 116.564 31.1625L116.92 30.1217H116.649L116.421 30.7631C116.24 31.2581 116.069 31.5856 115.908 31.7472C115.756 31.9097 115.608 31.99 115.465 31.99C115.313 31.99 115.218 31.9283 115.18 31.8039C115.142 31.6719 115.166 31.4764 115.251 31.22L116.649 27.0265C116.773 26.6559 116.834 26.309 116.834 25.9857C116.844 25.6532 116.754 25.3867 116.564 25.187C116.383 24.978 116.059 24.8739 115.594 24.8739C115.242 24.8739 114.904 24.95 114.581 25.1015C114.258 25.2538 113.944 25.5195 113.64 25.9003C113.336 26.2709 113.022 26.7752 112.698 27.4115C112.484 27.8407 112.287 28.2785 112.109 28.7239L112.584 26.87C112.642 26.6415 112.684 26.413 112.713 26.1854C112.742 25.9485 112.731 25.7336 112.684 25.5432C112.639 25.3466 112.522 25.1739 112.357 25.0584C112.195 24.9348 111.957 24.873 111.643 24.873C111.262 24.873 110.916 24.978 110.602 25.187C110.289 25.396 110.031 25.781 109.832 26.342L109.461 27.4115H109.732L109.975 26.7414C110.146 26.276 110.302 25.957 110.445 25.786C110.597 25.6058 110.763 25.5153 110.944 25.5153C111.077 25.5153 111.158 25.5534 111.187 25.6295C111.224 25.7057 111.235 25.8004 111.215 25.9147C111.194 26.0397 111.165 26.1635 111.13 26.2853L109.404 32.4317Z" fill="#D2D2D2" fill-opacity="0.8"/>
<path fill-rule="evenodd" clip-rule="evenodd" d="M105.766 30.45L105.826 30.2284C105.674 30.5925 105.491 30.9435 105.281 31.2776C104.977 31.7616 104.653 32.1094 104.311 32.3184C103.978 32.5274 103.631 32.6314 103.27 32.6314C102.756 32.6314 102.376 32.4749 102.129 32.161C101.881 31.8377 101.758 31.4104 101.758 30.8774C101.758 30.3832 101.839 29.8654 102.001 29.323C102.166 28.7632 102.39 28.2228 102.671 27.711C102.95 27.2006 103.285 26.7224 103.669 26.2853C104.009 25.8842 104.408 25.5378 104.853 25.258C105.271 25.0017 105.69 24.873 106.108 24.873C106.431 24.873 106.678 25.011 106.85 25.2877C106.941 25.429 106.996 25.6117 107.014 25.836L107.221 25.0727C107.562 25.0634 107.881 25.0448 108.176 25.016C108.481 24.9873 108.77 24.9399 109.046 24.873L107.206 31.2065C107.167 31.3226 107.139 31.4418 107.121 31.5627C107.11 31.6635 107.12 31.7654 107.15 31.8623C107.188 31.9384 107.268 31.9765 107.392 31.9765C107.544 31.9765 107.7 31.8961 107.862 31.7345C108.024 31.5729 108.19 31.2437 108.361 30.7504L108.575 30.1082H108.846L108.49 31.149C108.357 31.539 108.19 31.8428 107.991 32.0628C107.813 32.2567 107.594 32.4077 107.349 32.5045C107.14 32.5882 106.918 32.6319 106.693 32.6331C106.237 32.6331 105.913 32.4901 105.723 32.205C105.599 31.996 105.552 31.7396 105.581 31.435C105.614 31.1022 105.676 30.7721 105.766 30.45ZM104.011 31.9757C104.183 31.9757 104.378 31.8758 104.597 31.6761C104.815 31.4671 105.038 31.1769 105.267 30.8063C105.494 30.4357 105.714 29.994 105.923 29.4804C106.132 28.9667 106.313 28.4057 106.465 27.7965L106.417 28.0453L106.838 26.4875C106.883 26.1406 106.858 25.8639 106.765 25.6583C106.669 25.4298 106.507 25.3156 106.279 25.3156C106.061 25.3156 105.828 25.4298 105.581 25.6574C105.343 25.8859 105.105 26.1947 104.867 26.5848C104.63 26.974 104.411 27.4166 104.211 27.9107C104.019 28.4115 103.867 28.9264 103.755 29.4507C103.643 29.9617 103.586 30.483 103.584 31.006C103.584 31.358 103.617 31.6101 103.684 31.7616C103.76 31.9046 103.869 31.9757 104.011 31.9757Z" fill="#D2D2D2" fill-opacity="0.8"/>
<path d="M102.75 25.3578L102.793 25.0726H101.094L101.765 22.7338C101.484 22.8031 101.198 22.8509 100.91 22.8768C100.616 22.9048 100.297 22.9242 99.9547 22.9335L99.3413 25.0726H98.0432L97.9722 25.3578H99.26L97.8004 30.4499C97.6769 30.8679 97.6346 31.2436 97.6726 31.5762C97.72 31.8994 97.8529 32.1566 98.072 32.3462C98.2996 32.5365 98.6279 32.6321 99.0561 32.6321C99.5409 32.6321 99.9589 32.5035 100.311 32.2463C100.663 31.9899 100.939 31.5668 101.138 30.9771L101.424 30.1216H101.152L100.939 30.7063C100.767 31.1818 100.577 31.5144 100.368 31.7048C100.168 31.8952 99.9682 31.9899 99.7686 31.9899C99.6901 31.9925 99.612 31.9771 99.5405 31.9448C99.4689 31.9125 99.4057 31.8643 99.3556 31.8038C99.26 31.6811 99.2507 31.4865 99.3269 31.2199L101.012 25.3578H102.75ZM98.0263 22.2346C97.9316 22.4817 97.8029 22.8438 97.6413 23.3185C97.489 23.7839 97.3376 24.3932 97.1852 25.1437H96.9001C96.928 25.0108 96.9475 24.8729 96.9568 24.7308C96.975 24.6032 96.9846 24.4746 96.9856 24.3458C96.9856 23.9743 96.9094 23.6519 96.7571 23.3761C96.6108 23.0868 96.376 22.8517 96.0869 22.7051C95.7925 22.5342 95.4117 22.4487 94.9463 22.4487C94.442 22.4487 94.0139 22.5815 93.6627 22.8481C93.3107 23.1045 93.1347 23.5182 93.1347 24.0885C93.1347 24.4405 93.2151 24.7739 93.3767 25.087C93.5485 25.3916 93.7626 25.6911 94.0189 25.9856C94.2855 26.2708 94.5656 26.561 94.86 26.8555C95.1553 27.1406 95.4312 27.4359 95.6876 27.7397C95.9439 28.0443 96.1538 28.3675 96.3154 28.7094C96.4863 29.0428 96.5718 29.4083 96.5718 29.8077C96.5718 30.312 96.4483 30.7444 96.2012 31.1057C95.9601 31.4606 95.6434 31.7577 95.2738 31.9755C94.8863 32.1971 94.4683 32.3605 94.0333 32.4604C93.6145 32.5722 93.1832 32.63 92.7497 32.6321C92.3216 32.6321 91.9653 32.5983 91.6802 32.5323C91.4365 32.4864 91.2009 32.4046 90.9813 32.2895C90.7945 32.1871 90.6089 32.0827 90.4245 31.9764C90.3405 31.9059 90.2437 31.8525 90.1393 31.819C90.0729 31.7856 90.0003 31.766 89.9261 31.7615C89.8017 31.7615 89.6976 31.8232 89.6122 31.9476C89.5 32.1334 89.4046 32.3288 89.327 32.5315H89.041C89.2766 31.9515 89.4722 31.3561 89.6266 30.7495C89.7399 30.312 89.8686 29.7654 90.0116 29.1088H90.2967C90.2569 29.2977 90.2236 29.4879 90.1969 29.6791C90.1681 29.8695 90.1588 30.0598 90.1681 30.2502C90.1969 30.9153 90.4008 31.4289 90.7816 31.7902C91.1716 32.1515 91.7419 32.3318 92.4925 32.3318C93.1296 32.3318 93.6103 32.1989 93.9335 31.9332C94.2567 31.6574 94.4183 31.258 94.4183 30.7351C94.4183 30.3357 94.3422 29.9735 94.1899 29.6512C94.0461 29.3158 93.854 29.0034 93.6196 28.7238C93.3778 28.4344 93.1258 28.1539 92.8639 27.8827C92.6015 27.6114 92.3492 27.3306 92.1075 27.0408C91.874 26.7528 91.6776 26.4367 91.5228 26.0998C91.3671 25.7397 91.2895 25.3507 91.2952 24.9584C91.2952 24.4837 91.395 24.0699 91.5947 23.7179C91.7959 23.3746 92.0679 23.078 92.3926 22.8481C92.7257 22.6103 93.0972 22.4317 93.4909 22.3201C93.874 22.1991 94.273 22.1367 94.6747 22.1348C95.1883 22.1348 95.6114 22.1965 95.9439 22.3209C96.2773 22.4436 96.5625 22.5917 96.8003 22.7626L97.071 22.9335C97.1565 22.9716 97.2233 22.9902 97.2707 22.9902C97.4036 22.9902 97.5609 22.7389 97.7412 22.2346H98.0263Z" fill="#D2D2D2" fill-opacity="0.8"/>
<path fill-rule="evenodd" clip-rule="evenodd" d="M84.2599 31.7756C84.2312 31.6334 84.2506 31.4481 84.3175 31.2197L87.1123 21.0938C86.6649 21.2773 86.2019 21.4203 85.7289 21.5211C85.244 21.6167 84.6881 21.6683 84.0602 21.6784L83.9604 21.978C84.4258 21.978 84.7169 22.0541 84.8302 22.2064C84.9445 22.3587 84.9589 22.5957 84.8734 22.9189L84.2117 25.4142C84.1701 25.2938 84.0985 25.186 84.0036 25.1011C83.8419 24.9488 83.6186 24.8727 83.3334 24.8727C82.7622 24.8727 82.2351 25.0013 81.7502 25.2577C81.2625 25.5241 80.8236 25.8715 80.4522 26.2849C80.0621 26.7038 79.731 27.1741 79.4682 27.6827C79.2091 28.1777 79.0035 28.6987 78.8547 29.2371C78.7193 29.7008 78.6473 30.1807 78.6406 30.6637C78.6406 31.1198 78.7126 31.4955 78.8547 31.79C78.9977 32.0751 79.1923 32.2892 79.4394 32.4314C79.6865 32.5651 79.9623 32.6311 80.2669 32.6311C80.7323 32.6311 81.1512 32.494 81.5218 32.2181C81.8924 31.933 82.2393 31.4955 82.5625 30.9058C82.6979 30.6654 82.8342 30.3955 82.9704 30.096L82.8773 30.4497C82.7908 30.7282 82.7332 31.0148 82.7055 31.3051C82.6828 31.5161 82.7021 31.7295 82.7622 31.933C82.8765 32.3984 83.2276 32.6319 83.8182 32.6319C84.0366 32.6319 84.2599 32.5887 84.4884 32.5033C84.7169 32.4178 84.9301 32.2706 85.1298 32.0607C85.3396 31.8517 85.5055 31.5531 85.629 31.1621L85.9717 30.1214H85.7009L85.4725 30.7627C85.3016 31.2484 85.1399 31.5759 84.9876 31.7468C84.8446 31.9093 84.6974 31.9897 84.5451 31.9897C84.3843 31.9897 84.2887 31.9186 84.2599 31.7756ZM83.4984 28.1033C83.3918 28.4511 83.275 28.7819 83.1472 29.0941C82.9103 29.7034 82.6582 30.2263 82.3916 30.6637C82.1352 31.0911 81.8831 31.4236 81.636 31.6622C81.3889 31.8898 81.1706 32.0041 80.9794 32.0041C80.7992 32.0041 80.6663 31.9186 80.5809 31.7477C80.5047 31.5666 80.4666 31.2958 80.4666 30.9345C80.4666 30.4209 80.5233 29.898 80.6375 29.3658C80.7518 28.8242 80.9083 28.3055 81.108 27.8114C81.292 27.3475 81.5216 26.9031 81.7934 26.4846C82.0498 26.0852 82.3206 25.7713 82.6057 25.5428C82.9002 25.3144 83.1904 25.201 83.4756 25.201C83.6659 25.201 83.8182 25.2678 83.9325 25.4007C84.012 25.487 84.0729 25.6122 84.1152 25.7781L83.4984 28.1033Z" fill="#D2D2D2" fill-opacity="0.8"/>
<path d="M72.5373 32.4298H70.7832L72.5094 26.2833C72.5474 26.1505 72.5754 26.0269 72.594 25.9127C72.6152 25.8171 72.6054 25.7172 72.5661 25.6276C72.5373 25.5514 72.456 25.5133 72.3232 25.5133C72.143 25.5133 71.9763 25.6039 71.824 25.7841C71.6818 25.955 71.5244 26.274 71.3535 26.7402L71.1115 27.4096H70.8407L71.2114 26.34C71.4111 25.779 71.6683 25.394 71.9814 25.185C72.2944 24.976 72.6414 24.8719 73.0221 24.8719C73.3361 24.8719 73.5738 24.9329 73.7354 25.0564C73.9012 25.1718 74.0182 25.3445 74.0637 25.5412C74.1111 25.7316 74.1204 25.9457 74.0925 26.1835C74.0634 26.414 74.0205 26.6426 73.9639 26.868L73.4884 28.7228C73.6897 28.2244 73.8861 27.7878 74.0781 27.4096C74.4014 26.7732 74.7144 26.2689 75.0191 25.8983C75.3237 25.5176 75.6367 25.2519 75.96 25.0996C76.2841 24.9472 76.6208 24.8711 76.9728 24.8711C77.4382 24.8711 77.7623 24.976 77.9425 25.185C78.1329 25.3847 78.2234 25.6504 78.2133 25.9838C78.2133 26.307 78.1524 26.6539 78.028 27.0246L76.631 31.2181C76.5447 31.4745 76.521 31.6699 76.5591 31.8019C76.5971 31.9263 76.6927 31.9881 76.8451 31.9881C76.9872 31.9881 77.1344 31.9077 77.2867 31.7461C77.4484 31.5836 77.6193 31.2553 77.8004 30.7612L78.0288 30.1198H78.2996L77.9425 31.1606C77.8097 31.5599 77.6379 31.8646 77.4297 32.0744C77.2505 32.2701 77.0246 32.4171 76.7731 32.5017C76.5546 32.5856 76.3227 32.6292 76.0886 32.6303C75.8415 32.6303 75.6274 32.5872 75.4472 32.5017C75.2754 32.4256 75.1426 32.3156 75.0478 32.1734C74.9243 31.9932 74.8718 31.7596 74.8904 31.4745C74.9099 31.1893 74.986 30.8475 75.1189 30.4481L76.4169 26.5262C76.4643 26.3739 76.5024 26.2216 76.5311 26.0692C76.561 25.9371 76.5561 25.7995 76.5167 25.6699C76.4787 25.5556 76.3788 25.4989 76.2172 25.4989C76.0175 25.4989 75.7984 25.6132 75.5614 25.8408C75.3237 26.0599 75.0757 26.3688 74.8194 26.7682C74.5348 27.2182 74.2776 27.685 74.0494 28.166C73.793 28.6991 73.5451 29.2779 73.3073 29.9057C73.0788 30.5234 72.8757 31.1656 72.6947 31.8316L72.7031 31.785L72.5373 32.4298Z" fill="#D2D2D2" fill-opacity="0.8"/>
<path fill-rule="evenodd" clip-rule="evenodd" d="M67.2091 30.2288L67.1498 30.4505C67.06 30.7727 66.9977 31.1019 66.9637 31.4346C66.9349 31.7392 66.9823 31.9956 67.1058 32.2046C67.2962 32.4897 67.6194 32.6327 68.0764 32.6327C68.3202 32.631 68.5611 32.5794 68.7844 32.4812C69.0076 32.383 69.2083 32.2402 69.3744 32.0616C69.5741 31.8433 69.7399 31.5387 69.8736 31.1494L70.229 30.1087H69.9582L69.745 30.75C69.5732 31.2442 69.4065 31.5725 69.2458 31.7341C69.0841 31.8949 68.9268 31.9761 68.7753 31.9761C68.6509 31.9761 68.5705 31.938 68.5324 31.8619C68.5027 31.765 68.4929 31.6631 68.5037 31.5623C68.5231 31.4388 68.5511 31.3203 68.59 31.2061L70.4295 24.8735C70.1434 24.9419 69.8527 24.9897 69.5597 25.0165C69.2644 25.0453 68.9462 25.0639 68.6035 25.0732L68.3971 25.8364C68.3883 25.6427 68.3319 25.4541 68.2329 25.2873C68.1587 25.1574 68.0504 25.0503 67.9198 24.9774C67.7892 24.9045 67.6412 24.8685 67.4917 24.8735C67.0728 24.8735 66.654 25.0021 66.236 25.2585C65.818 25.5157 65.4237 25.8576 65.0522 26.2857C64.6681 26.7229 64.3332 27.201 64.0538 27.7115C63.7733 28.2232 63.5486 28.7637 63.3836 29.3234C63.228 29.8271 63.1465 30.3507 63.1416 30.8778C63.1416 31.4109 63.2651 31.8382 63.5122 32.1614C63.7593 32.4753 64.1401 32.6319 64.6528 32.6319C65.0141 32.6319 65.3619 32.5278 65.6936 32.3188C66.0363 32.109 66.3604 31.762 66.6641 31.278C66.8528 30.9861 67.0339 30.6367 67.2091 30.2288ZM65.9796 31.6766C65.7613 31.8763 65.5658 31.9761 65.3949 31.9761C65.2519 31.9761 65.1428 31.905 65.0666 31.762C65.0006 31.6097 64.9668 31.3584 64.9668 31.0064C64.9668 30.5021 65.0243 29.9843 65.1385 29.452C65.2519 28.919 65.4042 28.4062 65.5946 27.912C65.7943 27.417 66.0126 26.9753 66.2504 26.5853C66.4881 26.196 66.7259 25.8863 66.9637 25.6579C67.2108 25.4294 67.4434 25.316 67.6626 25.316C67.8911 25.316 68.0518 25.4303 68.1474 25.6579C68.2422 25.8643 68.2659 26.141 68.2211 26.4871L67.7997 28.0457L67.8479 27.7978C67.6956 28.4062 67.5154 28.9672 67.3064 29.4808C67.0965 29.9936 66.8782 30.4361 66.6498 30.8067C66.4213 31.1773 66.1979 31.4676 65.9796 31.6766Z" fill="#D2D2D2" fill-opacity="0.8"/>
<path d="M59.3293 32.4298H57.5752L59.2861 26.2833C59.3716 25.9982 59.4004 25.7985 59.3716 25.6843C59.3437 25.57 59.2582 25.5133 59.1152 25.5133C58.935 25.5133 58.7683 25.6039 58.616 25.7841C58.4637 25.9643 58.3071 26.2833 58.1455 26.7403L57.9027 27.4096H57.6319L58.0025 26.34C58.1362 25.9593 58.302 25.6657 58.5017 25.4558C58.7014 25.2375 58.9206 25.0852 59.1584 24.9997C59.3953 24.9143 59.6381 24.8711 59.886 24.8711C60.1898 24.8711 60.4132 24.9329 60.5554 25.0573C60.7066 25.1786 60.8083 25.351 60.8413 25.5421C60.8887 25.7418 60.898 25.9601 60.8693 26.1979C60.8507 26.4263 60.8126 26.6497 60.755 26.868L60.5266 27.7624L60.5494 27.7007L60.5841 27.6101C60.8507 26.9349 61.107 26.3976 61.3541 25.9982C61.6114 25.5895 61.8821 25.2993 62.1673 25.1283C62.4467 24.9585 62.7677 24.8695 63.0947 24.8711C63.4365 24.8711 63.698 24.971 63.879 25.1707C64.0686 25.3703 64.1642 25.6174 64.1642 25.9127C64.1642 26.1497 64.1067 26.3739 63.9924 26.5829C63.8818 26.7789 63.7253 26.9453 63.5363 27.0677C63.3479 27.1839 63.1299 27.2433 62.9085 27.2387C62.6716 27.2387 62.4812 27.1769 62.3382 27.0533C62.2053 26.9298 62.1385 26.7487 62.1385 26.5118C62.1385 26.302 62.1859 26.1124 62.2815 25.9407C62.3763 25.7697 62.4998 25.6276 62.6521 25.5133C62.8044 25.3898 62.9703 25.3043 63.1514 25.2561C63.1313 25.2366 63.1069 25.2222 63.0803 25.2138C63.0613 25.2074 63.0418 25.2031 63.0219 25.2011C63.0078 25.1998 62.9937 25.1992 62.9796 25.1994C62.7714 25.1994 62.5565 25.2756 62.3382 25.4279C62.1199 25.57 61.8914 25.8036 61.6537 26.1268C61.4167 26.45 61.1739 26.8773 60.926 27.4096C60.6472 28.0389 60.3998 28.6816 60.1847 29.3354C60.0773 29.651 59.969 29.992 59.8607 30.3567L59.3293 32.4298Z" fill="#D2D2D2" fill-opacity="0.8"/>
<path fill-rule="evenodd" clip-rule="evenodd" d="M56.6621 22.8639C56.1865 22.5212 55.4258 22.3503 54.38 22.3503C54.0568 22.3503 53.7335 22.3554 53.4095 22.3647C53.0964 22.374 52.7351 22.3791 52.3264 22.3791H51.6131C51.3558 22.3689 51.1138 22.3647 50.8854 22.3647C50.6952 22.3563 50.5051 22.3467 50.3151 22.3359L50.244 22.6211C50.6146 22.6211 50.8668 22.6685 50.9996 22.7641C51.1426 22.8487 51.2086 22.9824 51.1993 23.1635C51.1801 23.3944 51.1419 23.6234 51.0851 23.848L49.2024 30.9219C49.1178 31.2637 49.0221 31.5209 48.9172 31.6919C48.8225 31.8553 48.6701 31.9776 48.4899 32.0346C48.3088 32.0912 48.0567 32.1293 47.7335 32.1479L47.6768 32.4331C47.8375 32.4246 48.033 32.4196 48.2606 32.4196C48.4891 32.4094 48.7319 32.4052 48.9883 32.4052C49.7061 32.3833 50.4244 32.3881 51.1418 32.4196C51.5318 32.428 51.8889 32.4339 52.2121 32.4339C52.8298 32.4339 53.4145 32.3713 53.9662 32.2478C54.4747 32.1324 54.9611 31.9353 55.4064 31.6639C55.8047 31.4266 56.1418 31.0991 56.3905 30.7078C56.6375 30.327 56.7611 29.8811 56.7611 29.3675C56.7611 28.787 56.5241 28.2878 56.0486 27.8698C55.5832 27.4509 54.8454 27.2039 53.8376 27.1277C54.4664 27.0374 55.0773 26.8499 55.6484 26.5718C56.1815 26.2959 56.5995 25.9583 56.9041 25.5589C57.2107 25.1797 57.3769 24.7063 57.3745 24.2186C57.3745 23.6483 57.1385 23.1965 56.6621 22.8639ZM52.1098 27.3139L51.1561 30.9219C51.0995 31.1588 51.0614 31.3686 51.0428 31.5489C51.0326 31.7299 51.08 31.8679 51.1849 31.9635C51.2898 32.0582 51.4845 32.1056 51.7696 32.1056C52.4448 32.1056 52.9965 31.977 53.4238 31.7206C53.8425 31.4744 54.1761 31.1063 54.38 30.6655C54.589 30.2086 54.6931 29.6949 54.6931 29.1255C54.6931 28.7726 54.6313 28.4638 54.5078 28.1981C54.399 27.9282 54.2034 27.7022 53.9518 27.5559C53.6955 27.3942 53.3528 27.3139 52.9246 27.3139H52.1098ZM52.1741 27.071H52.8256C53.3671 27.071 53.8283 26.9331 54.2082 26.6572C54.5983 26.3721 54.8936 26.0015 55.0933 25.5454C55.3012 25.0936 55.4081 24.6018 55.4064 24.1044C55.4064 23.6289 55.3116 23.2633 55.1212 23.0061C54.941 22.7497 54.622 22.6211 54.1651 22.6211C53.8334 22.6211 53.5956 22.6879 53.4526 22.8208C53.3105 22.9443 53.1869 23.2151 53.082 23.6331L52.1741 27.071Z" fill="#D2D2D2" fill-opacity="0.8"/>
</svg>
