<svg width="145" height="32" viewBox="0 0 145 32" fill="none" xmlns="http://www.w3.org/2000/svg">
<g clip-path="url(#clip0_283_722)">
<path fill-rule="evenodd" clip-rule="evenodd" d="M45.9424 2.11103C45.9424 1.03575 46.8236 0.164062 47.9107 0.164062H51.3396C52.1133 0.164062 52.8632 0.429284 53.4614 0.914581L54.5045 1.76069L54.5306 1.78423C54.5547 1.7762 54.5787 1.76835 54.6029 1.76069C56.4847 1.16447 58.768 1.05109 61.0983 1.05109C63.4287 1.05109 65.7119 1.16447 67.5938 1.76069C67.6179 1.76835 67.642 1.7762 67.666 1.78423L67.6921 1.76069L68.7352 0.914581C69.3335 0.429284 70.0833 0.164062 70.857 0.164062H74.2859C75.3731 0.164062 76.2542 1.03575 76.2542 2.11103V3.31462C76.2542 4.24584 75.8577 5.13398 75.1618 5.76117L74.3203 6.5196C73.9095 6.88986 73.4164 7.15933 72.8809 7.30623L72.6818 7.36084C73.4615 9.20117 73.8923 11.1683 73.8923 12.7597C73.8923 19.1611 69.8881 21.9258 66.36 24.3617C63.5815 26.2801 61.0983 27.9946 61.0983 31.1209C61.0983 27.9946 58.6151 26.2801 55.8367 24.3617C52.3085 21.9258 48.3043 19.1611 48.3043 12.7597C48.3043 11.1683 48.7351 9.20117 49.5148 7.36084L49.3157 7.30623C48.7802 7.15933 48.2871 6.88986 47.8763 6.5196L47.0348 5.76117C46.3389 5.13398 45.9424 4.24584 45.9424 3.31462V2.11103ZM63.6571 17.9931C63.6571 18.2989 63.5223 18.5922 63.2824 18.8085C63.0425 19.0247 62.717 19.1462 62.3777 19.1462C62.0848 19.1462 61.8021 19.0556 61.576 18.8917C61.9609 19.9109 62.946 20.8767 64.4444 19.3236C65.7672 17.8805 64.3856 14.8367 63.0396 13.0305C62.591 12.4285 61.8544 12.1387 61.0983 12.1387C60.3422 12.1387 59.6057 12.4285 59.157 13.0305C57.811 14.8367 56.4294 17.8805 57.7522 19.3236C59.2506 20.8767 60.2357 19.9109 60.6207 18.8917C60.3945 19.0556 60.1119 19.1462 59.8189 19.1462C59.4796 19.1462 59.1541 19.0247 58.9142 18.8085C58.6743 18.5922 58.5395 18.2989 58.5395 17.9931H63.6571ZM56.1989 8.983H52.6346L55.4436 11.2078C56.0617 11.6973 56.9652 11.5408 57.3477 10.8779C57.8306 10.041 57.1892 8.983 56.1989 8.983ZM65.9978 8.983H69.562L66.753 11.2078C66.1349 11.6973 65.2314 11.5408 64.849 10.8779C64.366 10.041 65.0075 8.983 65.9978 8.983Z" fill="#D2D2D2" fill-opacity="0.8"/>
<path d="M80.499 22.0928H83.6566V10.1822H80.499V22.0928ZM80.499 8.32475H83.6566V5.49219H80.499V8.32475Z" fill="#D2D2D2" fill-opacity="0.8"/>
<path d="M85.6914 25.9917H88.849V20.7445H88.8954C89.5688 21.7661 90.66 22.4394 92.3316 22.4394C95.3964 22.4394 97.486 20.0016 97.486 16.1474C97.486 12.4326 95.466 9.85547 92.3084 9.85547C90.6832 9.85547 89.5687 10.6217 88.8026 11.6664H88.7329V10.1805H85.6914V25.9917ZM91.6583 19.8158C89.7777 19.8158 88.7794 18.3996 88.7794 16.2403C88.7794 14.1043 89.5687 12.4094 91.5422 12.4094C93.4925 12.4094 94.2819 13.9882 94.2819 16.2403C94.2819 18.4924 93.2604 19.8158 91.6583 19.8158Z" fill="#D2D2D2" fill-opacity="0.8"/>
<path d="M103.783 22.4394C106.755 22.4394 108.798 20.9999 108.798 18.6085C108.798 15.8224 106.593 15.2652 104.596 14.8473C102.901 14.499 101.322 14.4061 101.322 13.3845C101.322 12.5255 102.135 12.0611 103.365 12.0611C104.712 12.0611 105.524 12.5255 105.664 13.8025H108.52C108.287 11.411 106.546 9.85547 103.412 9.85547C100.695 9.85547 98.5592 11.086 98.5592 13.6632C98.5592 16.2635 100.649 16.844 102.785 17.2619C104.41 17.5869 105.919 17.703 105.919 18.8407C105.919 19.6765 105.13 20.2105 103.737 20.2105C102.32 20.2105 101.345 19.6069 101.136 18.237H98.2109C98.3967 20.7678 100.324 22.4394 103.783 22.4394Z" fill="#D2D2D2" fill-opacity="0.8"/>
<path d="M120.788 22.0942V10.1836H117.63V17.056C117.63 18.6348 116.725 19.7493 115.239 19.7493C113.892 19.7493 113.265 18.9831 113.265 17.59V10.1836H110.131V18.124C110.131 20.7244 111.617 22.4193 114.264 22.4193C115.935 22.4193 116.864 21.7924 117.677 20.7012H117.746V22.0942H120.788Z" fill="#D2D2D2" fill-opacity="0.8"/>
<path d="M122.832 22.0912H125.99V15.1723C125.99 13.5935 126.849 12.5719 128.126 12.5719C129.287 12.5719 129.96 13.2685 129.96 14.6151V22.0912H133.117V15.1723C133.117 13.5935 133.93 12.5719 135.253 12.5719C136.414 12.5719 137.088 13.2685 137.088 14.6151V22.0912H140.245V14.0811C140.245 11.4807 138.829 9.85547 136.321 9.85547C134.812 9.85547 133.559 10.6449 132.746 11.9451H132.7C132.119 10.6913 130.912 9.85547 129.403 9.85547C127.754 9.85547 126.593 10.6913 125.943 11.7825H125.874V10.1805H122.832V22.0912Z" fill="#D2D2D2" fill-opacity="0.8"/>
<path d="M0.77832 22.0928H3.93592V5.49219H0.77832V22.0928Z" fill="#D2D2D2" fill-opacity="0.8"/>
<path d="M11.6599 22.4394C15.3515 22.4394 17.8822 19.6997 17.8822 16.1474C17.8822 12.5951 15.3515 9.85547 11.6599 9.85547C7.96822 9.85547 5.4375 12.5951 5.4375 16.1474C5.4375 19.6997 7.96822 22.4394 11.6599 22.4394ZM11.6599 20.0248C9.70958 20.0248 8.64157 18.4692 8.64157 16.1474C8.64157 13.8257 9.70958 12.2469 11.6599 12.2469C13.5869 12.2469 14.6782 13.8257 14.6782 16.1474C14.6782 18.4692 13.5869 20.0248 11.6599 20.0248Z" fill="#D2D2D2" fill-opacity="0.8"/>
<path d="M24.5942 26.1542C26.3588 26.1542 27.8911 25.7363 28.8895 24.8076C29.7718 23.995 30.3058 22.8573 30.3058 21.1857V10.1805H27.2643V11.4343H27.2178C26.4981 10.4359 25.4068 9.85547 23.9209 9.85547C20.9026 9.85547 18.7666 12.1308 18.7666 15.6831C18.7666 19.2818 21.367 21.3714 24.0138 21.3714C25.5229 21.3714 26.4284 20.7678 27.1249 19.9784H27.1946V21.2785C27.1946 22.9038 26.3356 23.7628 24.5478 23.7628C23.0851 23.7628 22.4118 23.1824 22.1564 22.4394H19.022C19.347 24.7612 21.3438 26.1542 24.5942 26.1542ZM24.5478 18.8407C22.9226 18.8407 21.8545 17.6566 21.8545 15.6367C21.8545 13.6399 22.9226 12.3862 24.5246 12.3862C26.4284 12.3862 27.3571 13.8721 27.3571 15.6134C27.3571 17.378 26.5445 18.8407 24.5478 18.8407Z" fill="#D2D2D2" fill-opacity="0.8"/>
<path d="M37.9811 22.4394C41.6727 22.4394 44.2034 19.6997 44.2034 16.1474C44.2034 12.5951 41.6727 9.85547 37.9811 9.85547C34.2895 9.85547 31.7588 12.5951 31.7588 16.1474C31.7588 19.6997 34.2895 22.4394 37.9811 22.4394ZM37.9811 20.0248C36.0308 20.0248 34.9628 18.4692 34.9628 16.1474C34.9628 13.8257 36.0308 12.2469 37.9811 12.2469C39.9082 12.2469 40.9994 13.8257 40.9994 16.1474C40.9994 18.4692 39.9082 20.0248 37.9811 20.0248Z" fill="#D2D2D2" fill-opacity="0.8"/>
<path d="M140.099 7.58068C140.099 7.0464 140.531 6.61328 141.066 6.61328H143.001C143.535 6.61328 143.968 7.0464 143.968 7.58068C143.968 8.11493 143.535 8.54809 143.001 8.54809H141.066C140.531 8.54809 140.099 8.11493 140.099 7.58068Z" fill="#D2D2D2" fill-opacity="0.8"/>
</g>
<defs>
<clipPath id="clip0_283_722">
<rect width="143.949" height="31.7308" fill="white" transform="translate(0.25)"/>
</clipPath>
</defs>
</svg>
