<svg width="126" height="45" viewBox="0 0 126 45" fill="none" xmlns="http://www.w3.org/2000/svg">
<path d="M57.3814 18.2933C57.3273 17.1038 56.9218 16.2026 56.1648 15.5898C55.4079 14.977 54.4076 14.6706 53.164 14.6706C51.9744 14.6706 51.0643 14.914 50.4334 15.4006C49.8207 15.8872 49.5143 16.527 49.5143 17.3201C49.5143 18.0049 49.7215 18.5456 50.1361 18.9422C50.5506 19.3387 51.1454 19.6631 51.9204 19.9154C52.6954 20.1677 53.6055 20.402 54.6509 20.6183C55.7503 20.8346 56.7776 21.15 57.7329 21.5645C58.6881 21.9791 59.4541 22.5648 60.0308 23.3218C60.6256 24.0788 60.923 25.0971 60.923 26.3767C60.923 28.143 60.2561 29.5669 58.9224 30.6483C57.6067 31.7297 55.7413 32.2703 53.3262 32.2703C51.7401 32.2703 50.3704 32 49.2169 31.4593C48.0814 30.9186 47.1983 30.1706 46.5675 29.2154C45.9547 28.2422 45.6393 27.1157 45.6212 25.836L48.7573 25.4305C48.8114 26.8183 49.2439 27.8637 50.055 28.5666C50.884 29.2695 51.9925 29.6209 53.3803 29.6209C54.6239 29.6209 55.6241 29.3866 56.3811 28.918C57.1381 28.4494 57.5166 27.6744 57.5166 26.593C57.5166 25.836 57.3093 25.2593 56.8948 24.8628C56.4983 24.4663 55.9666 24.1689 55.2997 23.9706C54.6329 23.7544 53.9029 23.5561 53.1099 23.3759C51.65 23.0695 50.3974 22.691 49.3521 22.2404C48.3247 21.7718 47.5407 21.168 47 20.4291C46.4593 19.6901 46.189 18.7349 46.189 17.5634C46.189 16.482 46.4773 15.5267 47.0541 14.6977C47.6308 13.8506 48.4419 13.1927 49.4872 12.7241C50.5326 12.2555 51.7582 12.0212 53.164 12.0212C55.4529 12.0212 57.2372 12.5619 58.5169 13.6433C59.7965 14.7067 60.4814 16.1305 60.5715 17.9148L57.3814 18.2933ZM68.9095 32.2703C67.4316 32.2703 66.1339 31.964 65.0164 31.3512C63.899 30.7203 63.0249 29.8192 62.3941 28.6477C61.7813 27.4581 61.4749 26.0343 61.4749 24.3762C61.4749 22.7721 61.7632 21.3753 62.34 20.1858C62.9348 18.9962 63.7728 18.077 64.8542 17.4282C65.9537 16.7613 67.2694 16.4279 68.8013 16.4279C70.2792 16.4279 71.5589 16.7523 72.6403 17.4012C73.7217 18.05 74.5327 19.0233 75.0734 20.3209C75.6141 21.6186 75.8214 23.2317 75.6952 25.1602H64.6109C64.7371 26.7102 65.1696 27.8637 65.9086 28.6206C66.6656 29.3596 67.6749 29.7291 68.9365 29.7291C69.9999 29.7291 70.865 29.4948 71.5318 29.0262C72.1987 28.5395 72.6132 27.8637 72.7755 26.9985L75.533 27.6744C75.2446 29.0442 74.5057 30.1526 73.3162 30.9997C72.1446 31.8468 70.6757 32.2703 68.9095 32.2703ZM68.7473 18.861C67.6839 18.861 66.7827 19.1855 66.0438 19.8343C65.3228 20.4831 64.8632 21.5015 64.665 22.8892H72.4781C72.4961 21.6637 72.1717 20.6904 71.5048 19.9695C70.856 19.2305 69.9368 18.861 68.7473 18.861ZM80.7182 32.1892C78.5374 32.1892 77.447 31.252 77.447 29.3776V19.0503L75.4194 19.0773V16.6983L77.447 16.7253V12.5078L80.529 12.2375V16.7253L83.0162 16.6983V19.0773L80.529 19.0503V28.161C80.529 28.7198 80.6101 29.0983 80.7723 29.2965C80.9345 29.4767 81.2679 29.5669 81.7726 29.5669C82.2953 29.5669 82.7098 29.5218 83.0162 29.4317V31.9189C82.6016 32.009 82.1961 32.0721 81.7996 32.1081C81.4211 32.1622 81.0607 32.1892 80.7182 32.1892ZM83.9375 32V16.6983H86.7761L86.9654 18.9962C87.7764 17.3381 89.002 16.509 90.6421 16.509C91.2009 16.509 91.6244 16.5631 91.9128 16.6712V19.6451H91.7235C91.4171 19.5369 91.0477 19.4828 90.6151 19.4828C89.6058 19.4828 88.7947 19.7802 88.182 20.375C87.5692 20.9517 87.2087 21.7448 87.1006 22.7541V32H83.9375ZM98.576 32.2703C97.0981 32.2703 95.8004 31.964 94.683 31.3512C93.5656 30.7203 92.6914 29.8192 92.0606 28.6477C91.4478 27.4581 91.1414 26.0343 91.1414 24.3762C91.1414 22.7721 91.4298 21.3753 92.0066 20.1858C92.6013 18.9962 93.4394 18.077 94.5208 17.4282C95.6202 16.7613 96.9359 16.4279 98.4679 16.4279C99.9458 16.4279 101.225 16.7523 102.307 17.4012C103.388 18.05 104.199 19.0233 104.74 20.3209C105.281 21.6186 105.488 23.2317 105.362 25.1602H94.2775C94.4036 26.7102 94.8362 27.8637 95.5752 28.6206C96.3321 29.3596 97.3414 29.7291 98.6031 29.7291C99.6664 29.7291 100.532 29.4948 101.198 29.0262C101.865 28.5395 102.28 27.8637 102.442 26.9985L105.2 27.6744C104.911 29.0442 104.172 30.1526 102.983 30.9997C101.811 31.8468 100.342 32.2703 98.576 32.2703ZM98.4138 18.861C97.3504 18.861 96.4493 19.1855 95.7103 19.8343C94.9894 20.4831 94.5298 21.5015 94.3316 22.8892H102.145C102.163 21.6637 101.838 20.6904 101.171 19.9695C100.523 19.2305 99.6034 18.861 98.4138 18.861ZM104.387 32L109.821 24.0517L104.793 16.6983H108.335L111.714 22.0512L115.093 16.6983H118.554L113.579 23.9436L119.013 32H115.526L111.66 25.9983L107.821 32H104.387ZM118.902 32V28.6747H122.039V32H118.902Z" fill="white"/>
<path fill-rule="evenodd" clip-rule="evenodd" d="M13.1367 11.3802H18.1455V20.9187C18.1455 23.4551 16.1104 25.5113 13.6 25.5113H11.4322V13.1025C11.4322 12.1513 12.1953 11.3802 13.1367 11.3802ZM31.0818 19.2936C28.5714 19.2936 26.5363 21.3498 26.5363 23.8862V33.4247H31.5451C32.4865 33.4247 33.2497 32.6536 33.2497 31.7025V19.2936H31.0818ZM23.8095 18.1632C21.2992 18.1632 19.2641 16.107 19.2641 13.5706V11.3803H31.5455C32.4869 11.3803 33.2501 12.1513 33.2501 13.1025V18.1632H23.8095ZM11.4318 31.7025C11.4318 32.6536 12.195 33.4247 13.1364 33.4247H25.4178V31.2344C25.4178 28.6979 23.3828 26.6417 20.8724 26.6417H11.4318V31.7025Z" fill="#CFFE25"/>
</svg>
